<?xml version="1.0" encoding="UTF-8"?>
<svg id="Layer_1" xmlns="http://www.w3.org/2000/svg" xmlns:xlink="http://www.w3.org/1999/xlink" viewBox="0 0 1305 1430.89">
  <defs>
    <style>
      .cls-1 {
        fill: url(#linear-gradient-3);
      }

      .cls-1, .cls-2, .cls-3 {
        stroke: #300942;
        stroke-linecap: round;
        stroke-miterlimit: 10;
        stroke-width: 14px;
      }

      .cls-2 {
        fill: url(#linear-gradient-2);
      }

      .cls-3 {
        fill: url(#linear-gradient);
      }

      .cls-4 {
        fill: #300942;
      }

      .cls-5 {
        fill: #fff;
      }

      .cls-6 {
        fill: #22d6b7;
      }
    </style>
    <linearGradient id="linear-gradient" x1="807.6" y1="288.24" x2="1122.01" y2="288.24" gradientTransform="translate(-197.77 23) rotate(25.72)" gradientUnits="userSpaceOnUse">
      <stop offset="0" stop-color="#fe4a8b"/>
      <stop offset=".47" stop-color="#bb72dd"/>
      <stop offset="1" stop-color="#22d6b7"/>
    </linearGradient>
    <linearGradient id="linear-gradient-2" x1="790.24" y1="321.66" x2="1104.65" y2="321.66" gradientTransform="translate(-281.91 132.15) rotate(16.68)" xlink:href="#linear-gradient"/>
    <linearGradient id="linear-gradient-3" x1="339.8" y1="839.76" x2="791.84" y2="839.76" gradientTransform="translate(-304.98 487.89) rotate(-38.2)" xlink:href="#linear-gradient"/>
  </defs>
  <g>
    <g>
      <path class="cls-4" d="M20,480.54v469.81c0,80.61,43,155.09,112.81,195.4l406.87,234.91c69.81,40.3,155.82,40.3,225.63,0l406.87-234.91c69.81-40.3,112.81-114.79,112.81-195.4v-469.81c0-80.61-43-155.09-112.81-195.4L765.31,50.23c-69.81-40.3-155.82-40.3-225.63,0l-406.87,234.91c-69.81,40.3-112.81,114.79-112.81,195.4Z"/>
      <path class="cls-6" d="M652.5,1430.89c-43.06,0-85.52-11.38-122.81-32.91l-406.87-234.91c-37.29-21.53-68.38-52.62-89.91-89.91C11.38,1035.88,0,993.41,0,950.35v-469.81c0-43.06,11.38-85.53,32.91-122.81,21.53-37.29,52.62-68.38,89.91-89.91L529.69,32.91C566.98,11.38,609.44,0,652.5,0s85.53,11.38,122.81,32.91l406.87,234.91c37.29,21.53,68.38,52.62,89.91,89.91,21.53,37.29,32.91,79.76,32.91,122.81v469.81c0,43.06-11.38,85.53-32.91,122.81-21.53,37.29-52.62,68.38-89.91,89.91l-406.87,234.91c-37.29,21.53-79.76,32.91-122.81,32.91ZM652.5,40.09c-35.55,0-71.1,9.15-102.81,27.46l-406.87,234.91c-63.42,36.61-102.81,104.85-102.81,178.07v469.81c0,73.23,39.4,141.46,102.81,178.07l406.87,234.91c63.42,36.61,142.21,36.61,205.62,0l406.87-234.91c63.42-36.61,102.81-104.85,102.81-178.07v-469.81c0-73.23-39.39-141.46-102.81-178.07l-406.87-234.91c-31.71-18.31-67.26-27.46-102.81-27.46Z"/>
    </g>
    <path class="cls-6" d="M651.34,1329.96c-35.76,0-71.53-9.21-103.42-27.62l-354.97-204.94c-63.79-36.83-103.42-105.47-103.42-179.14v-409.89c0-73.66,39.63-142.3,103.42-179.14l354.97-204.94c63.79-36.83,143.05-36.83,206.85,0l354.97,204.94c63.79,36.83,103.42,105.47,103.42,179.14v409.89c0,73.66-39.63,142.3-103.42,179.14l-354.97,204.94c-31.9,18.42-67.66,27.62-103.42,27.62ZM651.34,116.66c-32.3,0-64.61,8.32-93.42,24.95l-354.97,204.94c-57.63,33.27-93.42,95.27-93.42,161.81v409.89c0,66.54,35.8,128.54,93.42,161.81l354.97,204.94c57.62,33.27,129.22,33.27,186.84,0l354.97-204.94c57.62-33.27,93.42-95.27,93.42-161.81v-409.89c0-66.54-35.8-128.54-93.42-161.81l-354.97-204.94c-28.81-16.63-61.12-24.95-93.42-24.95Z"/>
  </g>
  <g>
    <path class="cls-3" d="M504.04,926.65c2.91-44.02-56.7-97.65-58.51-184.31-.73-35.01-7.68-70.22-2.91-105.09,5.09-37.16,14.92-73.45,24.68-109.59,7.39-27.36,8.22-70.09,42.2-78.48,17.07-4.22,35.66,2.75,47.61,15.93,14.61,16.1,14.93,36.43,15.97,56.96,2.06,40.5-25.63,137.47-15.49,176.73,13.97,54.11,4.94,79.49,5.82,123.77.33,16.28,54.32,75.86,54.69,92.14"/>
    <path class="cls-2" d="M504.04,926.65c-4.04-43.93-48.84-14.05-57.72-57.21-7.05-34.3-26.91-161.84-27.67-197.02-.81-37.49,3.2-74.88,7.16-112.11,3-28.18-2.89-70.51,29.34-84.13,16.19-6.84,35.65-2.88,49.52,8.25,16.95,13.6,20.46,33.63,24.72,53.74,8.4,39.68-3.72,139.79,12.47,176.97,22.3,51.24,17.36,77.73,25.2,121.32,2.88,16.02,65.56,66.39,68.49,82.4"/>
    <path class="cls-1" d="M580.81,520.06c3.09-12.88-24.28-55.47-54.21-42-13.84,6.23-53.08,24.67-64.87,152.9-3.37,36.68-15.17,112.63-12.56,148.77,3.24,44.76,5.46,92.91,23.9,134.57,38.19,86.24,121.59,144.1,212.89,161.69,71.78,13.83,153.23,2.96,213.98-41.1,62.53-45.36,97.75-131.54,62.17-205.11-61.17-126.47-140.39-115.49-182.79-143.19-76.23-49.8-139.51-195.77-177.62-180.33-57.31,23.22-37.63,116.91,16.71,164.1,54.33,47.18,75.21,95.56,73.37,123.47-2.3,34.91-36,43.64-61.97,27.42-39.12-24.43-67.89-62.54-65.14-109.93,1.37-23.58,2.94-43.32,10.25-104.63"/>
  </g>
  <path class="cls-5" d="M630.83,322.73h0c-8.36-8.36-21.91-8.36-30.26,0l-8.41,8.41-8.41-8.41c-8.36-8.36-21.91-8.36-30.26,0h0c-8.36,8.36-8.36,21.91,0,30.26l35.58,35.58c1.71,1.71,4.47,1.71,6.18,0l35.59-35.58c8.36-8.36,8.36-21.91,0-30.26Z"/>
  <path class="cls-5" d="M831.45,772.28c-1.08.88-1.71,2.22-2.22,3.54-4.27,11.04-2.39,24.24,4.79,33.65,14.77,19.34,40.4,24.95,54.84,46.37,3.02,4.48,6.03,9.53,11.09,11.43,13.26,4.97,11.73-13.35,10.05-20.13-8.65-34.97-36.54-64.51-70.96-75.16-2.42-.75-5.24-1.35-7.31.1-.1.07-.19.14-.28.21Z"/>
  <path class="cls-5" d="M501.76,555.62c-1.36-.06-3.03,1.35-3.97,2.76-9.96,14.93-19.45,88.02-20.21,106.57-.2,4.91-.03,9.96,1.64,14.51,2.19,5.97,10.44,14.32,15.13,6.06,1.2-2.12,1.61-4.67,1.96-7.15,3.05-21.4,7.92-97.94,7.33-119.59-.02-.83-.07-1.72-.53-2.38-.37-.52-.83-.76-1.34-.78Z"/>
  <path class="cls-5" d="M622.9,555.64c-1.12.85-1.22,2.72-1.05,4.22,1,8.51,4.56,16.65,9.9,23.34,1.92,2.41,20.1,18.84,17.94,8.78-3-14.01-11.17-26.84-22.59-35.49-1.07-.81-2.43-1.63-3.68-1.14-.19.08-.37.17-.52.29Z"/>
</svg>