<?xml version="1.0" encoding="UTF-8"?>
<svg id="Layer_1" xmlns="http://www.w3.org/2000/svg" xmlns:xlink="http://www.w3.org/1999/xlink" viewBox="0 0 1305 1430.89">
  <defs>
    <style>
      .cls-1 {
        fill: url(#linear-gradient-3);
      }

      .cls-1, .cls-2, .cls-3, .cls-4, .cls-5 {
        stroke-miterlimit: 10;
        stroke-width: 14px;
      }

      .cls-1, .cls-2, .cls-4, .cls-5 {
        stroke: #300942;
        stroke-linecap: round;
      }

      .cls-2 {
        fill: url(#linear-gradient-2);
      }

      .cls-3 {
        stroke: #fff;
      }

      .cls-3, .cls-5 {
        fill: none;
      }

      .cls-4 {
        fill: url(#linear-gradient);
      }

      .cls-6 {
        fill: #300942;
      }

      .cls-7 {
        fill: #fff;
      }

      .cls-8 {
        fill: #22d6b7;
      }
    </style>
    <linearGradient id="linear-gradient" x1="-4391.78" y1="4640.08" x2="-3845.18" y2="4640.08" gradientTransform="translate(6621.16 400.88) rotate(45)" gradientUnits="userSpaceOnUse">
      <stop offset="0" stop-color="#fe4a8b"/>
      <stop offset=".47" stop-color="#bb72dd"/>
      <stop offset="1" stop-color="#22d6b7"/>
    </linearGradient>
    <linearGradient id="linear-gradient-2" x1="-4391.86" y1="4640.15" x2="-3845.25" y2="4640.15" xlink:href="#linear-gradient"/>
    <linearGradient id="linear-gradient-3" x1="-4360.59" y1="4608.89" x2="-3813.99" y2="4608.89" gradientTransform="translate(-5271.95 400.88) rotate(135) scale(1 -1)" xlink:href="#linear-gradient"/>
  </defs>
  <g>
    <g>
      <path class="cls-6" d="M20,480.54v469.81c0,80.61,43,155.09,112.81,195.4l406.87,234.91c69.81,40.3,155.82,40.3,225.63,0l406.87-234.91c69.81-40.3,112.81-114.79,112.81-195.4v-469.81c0-80.61-43-155.09-112.81-195.4L765.31,50.23c-69.81-40.3-155.82-40.3-225.63,0l-406.87,234.91c-69.81,40.3-112.81,114.79-112.81,195.4Z"/>
      <path class="cls-8" d="M652.5,1430.89c-43.06,0-85.53-11.38-122.81-32.91l-406.87-234.91c-37.29-21.53-68.38-52.62-89.91-89.91C11.38,1035.88,0,993.41,0,950.35v-469.81c0-43.06,11.38-85.53,32.91-122.81,21.53-37.29,52.62-68.38,89.91-89.91L529.69,32.91C566.97,11.38,609.44,0,652.5,0s85.53,11.38,122.81,32.91l406.87,234.91c37.29,21.53,68.38,52.62,89.91,89.91,21.53,37.29,32.91,79.76,32.91,122.81v469.81c0,43.06-11.38,85.53-32.91,122.81-21.53,37.29-52.62,68.38-89.91,89.91l-406.87,234.91c-37.29,21.53-79.76,32.91-122.81,32.91ZM652.5,40.09c-35.55,0-71.1,9.15-102.81,27.46l-406.87,234.91c-63.42,36.61-102.81,104.85-102.81,178.07v469.81c0,73.23,39.4,141.46,102.81,178.07l406.87,234.91c63.42,36.61,142.21,36.61,205.62,0l406.87-234.91c63.42-36.61,102.81-104.85,102.81-178.07v-469.81c0-73.23-39.39-141.46-102.81-178.07l-406.87-234.91c-31.71-18.31-67.26-27.46-102.81-27.46Z"/>
    </g>
    <path class="cls-8" d="M651.34,1329.96c-35.76,0-71.53-9.21-103.42-27.62l-354.97-204.94c-63.79-36.83-103.42-105.47-103.42-179.14v-409.89c0-73.66,39.63-142.3,103.42-179.14l354.97-204.94c63.79-36.83,143.05-36.83,206.85,0l354.97,204.94c63.79,36.83,103.42,105.47,103.42,179.14v409.89c0,73.66-39.63,142.3-103.42,179.14l-354.97,204.94c-31.9,18.42-67.66,27.62-103.42,27.62ZM651.34,116.66c-32.3,0-64.61,8.32-93.42,24.95l-354.97,204.94c-57.63,33.27-93.42,95.27-93.42,161.81v409.89c0,66.54,35.8,128.54,93.42,161.81l354.97,204.94c57.63,33.27,129.22,33.27,186.85,0l354.97-204.94c57.63-33.27,93.42-95.27,93.42-161.81v-409.89c0-66.54-35.8-128.54-93.42-161.81l-354.97-204.94c-28.81-16.63-61.12-24.95-93.42-24.95Z"/>
  </g>
  <path class="cls-3" d="M581.49,405.35l-2.39-16.3c-.04-.26.32-.38.45-.15l8.12,14.45c27.42,48.81,98.03,47.78,124.02-1.81l7.64-14.58c.12-.24.48-.12.45.14l-1.92,16.45c-6.48,55.61,51.24,96.29,101.43,71.47l14.79-7.31c.24-.12.46.18.28.38l-11.18,12.13c-37.95,41.17-15.17,108.02,40.02,117.46l16.32,2.79c.26.04.27.42,0,.47l-16.15,3.23c-54.9,10.97-75.77,78.44-36.66,118.49l11.58,11.86c.19.19-.03.5-.27.39l-14.97-6.88c-50.87-23.4-107.42,18.94-99.29,74.34l2.39,16.3c.04.26-.32.38-.45.15l-8.12-14.45c-27.42-48.81-98.03-47.78-124.02,1.81l-7.64,14.58c-.12.24-.48.12-.45-.14l1.92-16.45c6.48-55.61-51.24-96.29-101.43-71.47l-14.79,7.31c-.24.12-.46-.18-.28-.38l11.18-12.13c37.95-41.17,15.17-108.02-40.02-117.46l-16.32-2.79c-.26-.04-.27-.42,0-.47l16.15-3.23c54.9-10.97,75.77-78.44,36.66-118.49l-11.58-11.86c-.19-.19.03-.5.27-.39l14.97,6.88c50.87,23.4,107.42-18.94,99.29-74.34Z"/>
  <g>
    <g>
      <path class="cls-5" d="M470.63,902.99s-64.08-1.49-59.02,43.86c5.05,45.35,74.26,48.16,74.26,48.16"/>
      <path class="cls-4" d="M652.22,768.92h0c0-24.89-20.17-45.07-45.08-45.14-.02,0-.03-.02,0-.03,1.86-.46,26.36-7.32,18.89-50.27-7.76-44.63-53.21-144.57-98.7-148.57-126.23-11.08-347.63-28.3-351.9,207.92,0,0-78.25,228.57,238.73,261.77h46.1s65.63,0,65.63,0h24.76c24.96,0,63.21-6.24,68.31-42,3-21-3-45-29-48h6c24.96,0,45.08-20.49,45.08-45.41h0c0-24.93-20.24-45.14-45.2-45.14,0,0,59.28,8.83,56.38-45.14Z"/>
      <path class="cls-5" d="M284.29,667.88s21.32,36.26,63.36,36.96c41.27.69,64.8-31.95,73.11-46.25,2.83-4.87,7.13-8.71,12.31-10.91,10.55-4.48,30.89-11.3,62.96-14.94,0,0,51.35,72.89,97.16,52.74,48.51-21.34-10.96-150.98-66.11-159.45-55.16-8.47-101.85-6.73-101.85-6.73"/>
      <path class="cls-5" d="M478.78,810.45s-58.96,0-58.08,44.88c1.3,66.13,183.05,48.4,183.05,48.4"/>
      <path class="cls-5" d="M613.43,724.2s-171.07-12.14-180.9,43.05c-12.71,71.36,196.74,43.2,196.74,43.2"/>
      <path class="cls-5" d="M496.03,632.74s-78.64,5.53-81.49,50.45c-2.57,40.42,27.43,52.42,78.43,46.42"/>
      <path class="cls-5" d="M493.74,901.97s-56.32-7.04-65.12,36.96c-5.87,29.35,13.11,51.43,69.48,56.08"/>
    </g>
    <path class="cls-5" d="M315.56,763.29c7.18,19.16,11.51,39.72,9.63,60.09-1.87,20.37-10.4,40.57-25.73,54.12"/>
    <path class="cls-5" d="M194.52,749.96s-17.08-23.4-14.96-61.6"/>
    <path class="cls-7" d="M298.07,563.01c31.91-21.45,87.82-19.32,93.92-19.04,16.66.78,35.69,3.48,35.6,5.89-.1,2.74-24.73.62-52.26,7.7-42.52,10.94-53.3,33.87-73.47,30.82-7.51-1.14-13.6-5.47-15.15-9.52-2.45-6.41,6.32-12.48,11.36-15.86Z"/>
    <path class="cls-7" d="M248.93,601.87c-2.5,6.01-3.39,14.89,0,16.72,2.85,1.54,7.64-2.49,14.08-7.92,6.55-5.52,9.83-8.27,9.68-12.32-.16-4.5-4.34-8.99-8.8-9.68-8.72-1.35-14.65,12.46-14.96,13.2Z"/>
    <path class="cls-7" d="M590.31,740.46c-18.32-1.26-36.21,4.53-35.95,7.48.2,2.22,10.75,2.92,18.64,3.45,18.42,1.22,40.98-.72,41.16-4.19.14-2.68-13.11-6-23.85-6.74Z"/>
    <path class="cls-7" d="M590.31,828.47c-18.32-1.26-36.21,4.53-35.95,7.48.2,2.22,10.75,2.92,18.64,3.45,18.42,1.22,40.98-.72,41.16-4.19.14-2.68-13.11-6-23.85-6.74Z"/>
    <path class="cls-7" d="M560.82,929.23c-18.32-1.26-36.21,4.53-35.95,7.48.2,2.22,10.75,2.92,18.64,3.45,18.42,1.22,40.98-.72,41.16-4.19.14-2.68-13.11-6-23.85-6.74Z"/>
    <path class="cls-7" d="M536.9,555.76c4.35,1.41,8.24,4.04,11.95,6.75,7.94,5.81,15.96,13.06,17.57,22.77,1.91,11.47-8.08-.39-10.31-3.14-3.56-4.39-9.04-7-13.85-9.77-4.93-2.83-9.89-6.49-11.68-11.89-.5-1.52-.65-3.39.48-4.52,1.14-1.14,3.01-.98,4.57-.57.42.11.84.23,1.26.37Z"/>
  </g>
  <g>
    <g>
      <g>
        <path class="cls-5" d="M470.52,902.99s-64.08-1.49-59.02,43.86c5.05,45.35,74.26,48.16,74.26,48.16"/>
        <path class="cls-2" d="M652.12,768.92h0c0-24.89-20.17-45.07-45.08-45.14-.02,0-.03-.02,0-.03,1.86-.46,26.36-7.32,18.89-50.27-7.76-44.63-53.21-144.57-98.7-148.57-126.23-11.08-347.63-28.3-351.9,207.92,0,0-78.25,228.57,238.73,261.77h46.1s65.63,0,65.63,0h24.76c24.96,0,63.21-6.24,68.31-42,3-21-3-45-29-48h6c24.96,0,45.08-20.49,45.08-45.41h0c0-24.93-20.24-45.14-45.2-45.14,0,0,59.28,8.83,56.38-45.14Z"/>
        <path class="cls-5" d="M284.18,667.88s21.32,36.26,63.36,36.96c41.27.69,64.8-31.95,73.11-46.25,2.83-4.87,7.13-8.71,12.31-10.91,10.55-4.48,30.89-11.3,62.96-14.94,0,0,51.35,72.89,97.16,52.74,48.51-21.34-10.96-150.98-66.11-159.45-55.16-8.47-101.85-6.73-101.85-6.73"/>
        <path class="cls-5" d="M478.67,810.45s-58.96,0-58.08,44.88c1.3,66.13,183.05,48.4,183.05,48.4"/>
        <path class="cls-5" d="M613.32,724.2s-171.07-12.14-180.9,43.05c-12.71,71.36,196.74,43.2,196.74,43.2"/>
        <path class="cls-5" d="M495.92,632.74s-78.64,5.53-81.49,50.45c-2.57,40.42,27.43,52.42,78.43,46.42"/>
        <path class="cls-5" d="M493.63,901.97s-56.32-7.04-65.12,36.96c-5.87,29.35,13.11,51.43,69.48,56.08"/>
      </g>
      <path class="cls-5" d="M315.46,763.29c7.18,19.16,11.51,39.72,9.63,60.09-1.87,20.37-10.4,40.57-25.73,54.12"/>
      <path class="cls-5" d="M194.42,749.96s-17.08-23.4-14.96-61.6"/>
      <path class="cls-7" d="M297.96,563.01c31.91-21.45,87.82-19.32,93.92-19.04,16.66.78,35.69,3.48,35.6,5.89-.1,2.74-24.73.62-52.26,7.7-42.52,10.94-53.3,33.87-73.47,30.82-7.51-1.14-13.6-5.47-15.15-9.52-2.45-6.41,6.32-12.48,11.36-15.86Z"/>
      <path class="cls-7" d="M248.83,601.87c-2.5,6.01-3.39,14.89,0,16.72,2.85,1.54,7.64-2.49,14.08-7.92,6.55-5.52,9.83-8.27,9.68-12.32-.16-4.5-4.34-8.99-8.8-9.68-8.72-1.35-14.65,12.46-14.96,13.2Z"/>
      <path class="cls-7" d="M590.2,740.46c-18.32-1.26-36.21,4.53-35.95,7.48.2,2.22,10.75,2.92,18.64,3.45,18.42,1.22,40.98-.72,41.16-4.19.14-2.68-13.11-6-23.85-6.74Z"/>
      <path class="cls-7" d="M590.2,828.47c-18.32-1.26-36.21,4.53-35.95,7.48.2,2.22,10.75,2.92,18.64,3.45,18.42,1.22,40.98-.72,41.16-4.19.14-2.68-13.11-6-23.85-6.74Z"/>
      <path class="cls-7" d="M560.72,929.23c-18.32-1.26-36.21,4.53-35.95,7.48.2,2.22,10.75,2.92,18.64,3.45,18.42,1.22,40.98-.72,41.16-4.19.14-2.68-13.11-6-23.85-6.74Z"/>
      <path class="cls-7" d="M536.79,555.76c4.35,1.41,8.24,4.04,11.95,6.75,7.94,5.81,15.96,13.06,17.57,22.77,1.91,11.47-8.08-.39-10.31-3.14-3.56-4.39-9.04-7-13.85-9.77-4.93-2.83-9.89-6.49-11.68-11.89-.5-1.52-.65-3.39.48-4.52,1.14-1.14,3.01-.98,4.57-.57.42.11.84.23,1.26.37Z"/>
    </g>
    <g>
      <g>
        <path class="cls-5" d="M834.48,902.99s64.08-1.49,59.02,43.86c-5.05,45.35-74.26,48.16-74.26,48.16"/>
        <path class="cls-1" d="M652.88,768.92h0c0-24.89,20.17-45.07,45.08-45.14.02,0,.03-.02,0-.03-1.86-.46-26.36-7.32-18.89-50.27,7.76-44.63,53.21-144.57,98.7-148.57,126.23-11.08,347.63-28.3,351.9,207.92,0,0,78.25,228.57-238.73,261.77h-46.1s-65.63,0-65.63,0h-24.76c-24.96,0-63.21-6.24-68.31-42-3-21,3-45,29-48h-6c-24.96,0-45.08-20.49-45.08-45.41h0c0-24.93,20.24-45.14,45.2-45.14,0,0-59.28,8.83-56.38-45.14Z"/>
        <path class="cls-5" d="M1020.82,667.88s-21.32,36.26-63.36,36.96c-41.27.69-64.8-31.95-73.11-46.25-2.83-4.87-7.13-8.71-12.31-10.91-10.55-4.48-30.89-11.3-62.96-14.94,0,0-51.35,72.89-97.16,52.74-48.51-21.34,10.96-150.98,66.11-159.45,55.16-8.47,101.85-6.73,101.85-6.73"/>
        <path class="cls-5" d="M826.33,810.45s58.96,0,58.08,44.88c-1.3,66.13-183.05,48.4-183.05,48.4"/>
        <path class="cls-5" d="M691.68,724.2s171.07-12.14,180.9,43.05c12.71,71.36-196.74,43.2-196.74,43.2"/>
        <path class="cls-5" d="M809.08,632.74s78.64,5.53,81.49,50.45c2.57,40.42-27.43,52.42-78.43,46.42"/>
        <path class="cls-5" d="M811.37,901.97s56.32-7.04,65.12,36.96c5.87,29.35-13.11,51.43-69.48,56.08"/>
      </g>
      <path class="cls-5" d="M989.54,763.29c-7.18,19.16-11.51,39.72-9.63,60.09,1.87,20.37,10.4,40.57,25.73,54.12"/>
      <path class="cls-5" d="M1110.58,749.96s17.08-23.4,14.96-61.6"/>
      <path class="cls-7" d="M1007.04,563.01c-31.91-21.45-87.82-19.32-93.92-19.04-16.66.78-35.69,3.48-35.6,5.89.1,2.74,24.73.62,52.26,7.7,42.52,10.94,53.3,33.87,73.47,30.82,7.51-1.14,13.6-5.47,15.15-9.52,2.45-6.41-6.32-12.48-11.36-15.86Z"/>
      <path class="cls-7" d="M1056.17,601.87c2.5,6.01,3.39,14.89,0,16.72-2.85,1.54-7.64-2.49-14.08-7.92-6.55-5.52-9.83-8.27-9.68-12.32.16-4.5,4.34-8.99,8.8-9.68,8.72-1.35,14.65,12.46,14.96,13.2Z"/>
      <path class="cls-7" d="M714.8,740.46c18.32-1.26,36.21,4.53,35.95,7.48-.2,2.22-10.75,2.92-18.64,3.45-18.42,1.22-40.98-.72-41.16-4.19-.14-2.68,13.11-6,23.85-6.74Z"/>
      <path class="cls-7" d="M714.8,828.47c18.32-1.26,36.21,4.53,35.95,7.48-.2,2.22-10.75,2.92-18.64,3.45-18.42,1.22-40.98-.72-41.16-4.19-.14-2.68,13.11-6,23.85-6.74Z"/>
      <path class="cls-7" d="M744.28,929.23c18.32-1.26,36.21,4.53,35.95,7.48-.2,2.22-10.75,2.92-18.64,3.45-18.42,1.22-40.98-.72-41.16-4.19-.14-2.68,13.11-6,23.85-6.74Z"/>
      <path class="cls-7" d="M768.21,555.76c-4.35,1.41-8.24,4.04-11.95,6.75-7.94,5.81-15.96,13.06-17.57,22.77-1.91,11.47,8.08-.39,10.31-3.14,3.56-4.39,9.04-7,13.85-9.77,4.93-2.83,9.89-6.49,11.68-11.89.5-1.52.65-3.39-.48-4.52-1.14-1.14-3.01-.98-4.57-.57-.42.11-.84.23-1.26.37Z"/>
    </g>
  </g>
</svg>