<?xml version="1.0" encoding="UTF-8"?>
<svg id="Layer_1" xmlns="http://www.w3.org/2000/svg" xmlns:xlink="http://www.w3.org/1999/xlink" viewBox="0 0 1305 1430.89">
  <defs>
    <style>
      .cls-1 {
        fill: url(#linear-gradient-6);
      }

      .cls-1, .cls-2, .cls-3, .cls-4, .cls-5, .cls-6, .cls-7 {
        stroke: #300942;
        stroke-width: 14px;
      }

      .cls-1, .cls-2, .cls-3, .cls-4, .cls-5, .cls-6, .cls-7, .cls-8 {
        stroke-linecap: round;
        stroke-miterlimit: 10;
      }

      .cls-2 {
        fill: url(#linear-gradient-4);
      }

      .cls-3 {
        fill: url(#linear-gradient-3);
      }

      .cls-4 {
        fill: url(#linear-gradient-2);
      }

      .cls-5 {
        fill: url(#linear-gradient-5);
      }

      .cls-6 {
        fill: url(#linear-gradient);
      }

      .cls-9, .cls-8 {
        fill: #300942;
      }

      .cls-7 {
        fill: none;
      }

      .cls-10 {
        fill: #fff;
      }

      .cls-11 {
        fill: #22d6b7;
      }

      .cls-8 {
        stroke: #fff;
        stroke-width: 10.13px;
      }
    </style>
    <linearGradient id="linear-gradient" x1="308.72" y1="891.66" x2="712.85" y2="391.24" gradientUnits="userSpaceOnUse">
      <stop offset="0" stop-color="#fe4a8b"/>
      <stop offset=".47" stop-color="#bb72dd"/>
      <stop offset="1" stop-color="#22d6b7"/>
    </linearGradient>
    <linearGradient id="linear-gradient-2" x1="580.71" y1="891.66" x2="984.83" y2="391.24" gradientTransform="translate(1580.99) rotate(-180) scale(1 -1)" xlink:href="#linear-gradient"/>
    <linearGradient id="linear-gradient-3" x1="333.3" y1="917.59" x2="737.44" y2="417.15" xlink:href="#linear-gradient"/>
    <linearGradient id="linear-gradient-4" x1="605.29" y1="917.59" x2="1009.43" y2="417.15" gradientTransform="translate(1580.99) rotate(-180) scale(1 -1)" xlink:href="#linear-gradient"/>
    <linearGradient id="linear-gradient-5" x1="387.98" y1="972.09" x2="794.3" y2="468.95" xlink:href="#linear-gradient"/>
    <linearGradient id="linear-gradient-6" x1="659.96" y1="972.09" x2="1066.28" y2="468.95" gradientTransform="translate(1580.99) rotate(-180) scale(1 -1)" xlink:href="#linear-gradient"/>
  </defs>
  <g>
    <g>
      <path class="cls-9" d="M20,480.54v469.81c0,80.61,43,155.09,112.81,195.4l406.87,234.91c69.81,40.3,155.82,40.3,225.63,0l406.87-234.91c69.81-40.3,112.81-114.79,112.81-195.4v-469.81c0-80.61-43-155.09-112.81-195.4L765.31,50.23c-69.81-40.3-155.82-40.3-225.63,0l-406.87,234.91c-69.81,40.3-112.81,114.79-112.81,195.4Z"/>
      <path class="cls-11" d="M652.5,1430.89c-43.06,0-85.53-11.38-122.81-32.91l-406.87-234.91c-37.29-21.53-68.38-52.62-89.91-89.91C11.38,1035.88,0,993.41,0,950.35v-469.81c0-43.06,11.38-85.53,32.91-122.81,21.53-37.29,52.62-68.38,89.91-89.91L529.69,32.91C566.97,11.38,609.44,0,652.5,0s85.53,11.38,122.81,32.91l406.87,234.91c37.29,21.53,68.38,52.62,89.91,89.91,21.53,37.29,32.91,79.76,32.91,122.81v469.81c0,43.06-11.38,85.53-32.91,122.81-21.53,37.29-52.62,68.38-89.91,89.91l-406.87,234.91c-37.29,21.53-79.76,32.91-122.81,32.91ZM652.5,40.09c-35.55,0-71.1,9.15-102.81,27.46l-406.87,234.91c-63.42,36.61-102.81,104.85-102.81,178.08v469.81c0,73.23,39.39,141.46,102.81,178.08l406.87,234.91c63.42,36.61,142.21,36.61,205.62,0l406.87-234.91c63.42-36.61,102.81-104.85,102.81-178.07v-469.81c0-73.23-39.4-141.46-102.81-178.08l-406.87-234.91c-31.71-18.31-67.26-27.46-102.81-27.46Z"/>
    </g>
    <path class="cls-11" d="M652.5,1332.09c-35.76,0-71.53-9.21-103.42-27.62l-354.97-204.94c-63.79-36.83-103.42-105.47-103.42-179.14v-409.89c0-73.66,39.63-142.3,103.42-179.14l354.97-204.94c63.79-36.83,143.05-36.83,206.85,0l354.97,204.94c63.79,36.83,103.42,105.47,103.42,179.14v409.89c0,73.66-39.63,142.3-103.42,179.14l-354.97,204.94c-31.9,18.42-67.66,27.62-103.42,27.62ZM652.5,118.79c-32.3,0-64.61,8.32-93.42,24.95l-354.97,204.94c-57.63,33.27-93.42,95.27-93.42,161.81v409.89c0,66.54,35.8,128.54,93.42,161.81l354.97,204.94c57.63,33.27,129.22,33.27,186.85,0l354.97-204.94c57.63-33.27,93.42-95.27,93.42-161.81v-409.89c0-66.54-35.8-128.54-93.42-161.81l-354.97-204.94c-28.81-16.63-61.12-24.95-93.42-24.95Z"/>
  </g>
  <path class="cls-6" d="M552.88,667.11c-1.46-25.3,1.45-148.14,4.59-173.41,3.35-26.93,10.13-53.28,16.87-79.52,5.1-19.86,5.32-50.78,29.82-57.16,12.31-3.2,25.82,1.67,34.59,11.1,10.71,11.52,11.13,26.22,12.07,41.07.99,15.61-11.47,68.63-13,118.34-1.34,43.53,3.53,114.38,4.01,129.33"/>
  <path class="cls-4" d="M756.12,667.11c1.46-25.3-1.45-148.14-4.59-173.41-3.35-26.93-10.13-53.28-16.87-79.52-5.1-19.86-5.32-50.78-29.82-57.16-12.31-3.2-25.82,1.67-34.59,11.1-10.71,11.52-11.13,26.22-12.07,41.07-.99,15.61,11.47,68.63,13,118.34,1.34,43.53-3.53,114.38-4.01,129.33"/>
  <g>
    <path class="cls-10" d="M631.77,392.81c.09.66.16,1.33.22,1.99.88,9.43-.15,18.92-.73,28.34-.4,6.46-.8,12.91-1.2,19.37-.37,5.94-.32,11.8-2.52,17.42-.39.99-1.11,2.14-2.17,2.02-.9-.1-1.41-1.07-1.69-1.93-1.6-4.97-.8-11.38-.86-16.55-.06-6.46.03-12.93.28-19.39.49-12.69,1.57-25.37,3.31-37.95.07-.47.15-.98.48-1.32.95-.97,2.51.29,3.1,1.52.97,2.03,1.47,4.24,1.77,6.48Z"/>
    <path class="cls-10" d="M677.21,392.79c-.09.66-.16,1.33-.22,1.99-.87,9.43.16,18.92.75,28.34.41,6.46.81,12.91,1.22,19.37.37,5.94.33,11.8,2.53,17.42.39.99,1.11,2.14,2.17,2.02.9-.1,1.41-1.07,1.69-1.93,1.59-4.97.8-11.38.84-16.55.06-6.46-.04-12.93-.29-19.39-.5-12.69-1.59-25.37-3.33-37.95-.07-.47-.15-.98-.48-1.32-.95-.97-2.51.29-3.1,1.52-.97,2.03-1.47,4.24-1.76,6.48Z"/>
  </g>
  <path class="cls-3" d="M552.53,723.72c-1.44-25.3,1.58-148.14,4.74-173.4,3.36-26.93,10.17-53.27,16.92-79.5,5.11-19.86,5.35-50.78,29.86-57.14,12.31-3.2,25.82,1.69,34.58,11.12,10.71,11.52,11.11,26.23,12.04,41.07.98,15.61-11.51,68.62-13.08,118.33-1.37,43.53,3.42,114.38,3.9,129.33"/>
  <path class="cls-2" d="M756.47,723.72c1.44-25.3-1.58-148.14-4.74-173.4-3.36-26.93-10.17-53.27-16.92-79.5-5.11-19.86-5.35-50.78-29.86-57.14-12.31-3.2-25.82,1.69-34.58,11.12-10.71,11.52-11.11,26.23-12.04,41.07-.98,15.61,11.51,68.62,13.08,118.33,1.37,43.53-3.42,114.38-3.9,129.33"/>
  <g>
    <path class="cls-10" d="M631.27,446.71c.09.66.16,1.33.22,1.99.87,9.43-.15,18.92-.74,28.34-.4,6.46-.81,12.91-1.21,19.37-.37,5.94-.33,11.8-2.52,17.42-.39.99-1.11,2.14-2.17,2.02-.9-.1-1.41-1.07-1.69-1.93-1.6-4.97-.8-11.38-.85-16.55-.06-6.46.03-12.93.29-19.39.49-12.69,1.58-25.37,3.32-37.95.07-.47.15-.98.48-1.32.95-.97,2.51.29,3.1,1.52.97,2.03,1.47,4.24,1.77,6.48Z"/>
    <path class="cls-10" d="M676.71,446.71c-.09.66-.16,1.33-.22,1.99-.87,9.43.15,18.92.74,28.34.4,6.46.81,12.91,1.21,19.37.37,5.94.33,11.8,2.52,17.42.39.99,1.11,2.14,2.17,2.02.9-.1,1.41-1.07,1.69-1.93,1.6-4.97.8-11.38.85-16.55.06-6.46-.03-12.93-.29-19.39-.49-12.69-1.58-25.37-3.32-37.95-.07-.47-.15-.98-.48-1.32-.95-.97-2.51.29-3.1,1.52-.97,2.03-1.47,4.24-1.77,6.48Z"/>
  </g>
  <path class="cls-5" d="M653.31,531.24c-.89-17.79-2.55-36.19-18.48-47.37-10.61-7.45-25.84-8.54-36.52-1.19-8.63,5.94-13.27,16.18-15.85,26.33-9.77,38.53-22.38,111.92-29.46,185.01-3.64,37.54-22.79,36.87-52.92,59.55-16.61,12.51-69.86,41.14-71.3,41.96-15.39,8.7-51.2,45.18-56.43,101.01-5.22,55.83,20.77,96.32,37.51,101.15,70.53,20.35,142.72,10.96,195.27-64.47,49.23-70.65,49.47-151.91,49.33-234.22-.11-64.03.29-84.08-.69-148.1-.1-6.55-.14-13.12-.47-19.67Z"/>
  <path class="cls-8" d="M450.17,778.32c-5.72,42.14-2.52,167.78,45.35,234.35,4.37,6.08,2.27,14.63-4.48,17.89l-88.36,43.08c-6.1,2.95-13.44.27-16.2-5.92l-102.78-235.09c-2.81-6.3.25-13.66,6.69-16.12l143.6-51.02c8.52-3.25,17.41,3.79,16.19,12.82Z"/>
  <path class="cls-7" d="M468.53,739.04s-39,172,45,278"/>
  <path class="cls-1" d="M655.69,531.24c.89-17.79,2.55-36.19,18.48-47.37,10.61-7.45,25.84-8.54,36.52-1.19,8.63,5.94,13.27,16.18,15.85,26.33,9.77,38.53,22.38,111.92,29.46,185.01,3.64,37.54,22.79,36.87,52.92,59.55,16.61,12.51,69.86,41.14,71.3,41.96,15.39,8.7,51.2,45.18,56.43,101.01,5.22,55.83-20.77,96.32-37.51,101.15-70.53,20.35-142.72,10.96-195.27-64.47-49.23-70.65-49.47-151.91-49.33-234.22.11-64.03-.29-84.08.69-148.1.1-6.55.14-13.12.47-19.67Z"/>
  <path class="cls-8" d="M858.83,778.32c5.72,42.14,2.52,167.78-45.35,234.35-4.37,6.08-2.27,14.63,4.48,17.89l88.36,43.08c6.1,2.95,13.44.27,16.2-5.92l102.78-235.09c2.81-6.3-.25-13.66-6.69-16.12l-143.6-51.02c-8.52-3.25-17.41,3.79-16.19,12.82Z"/>
  <path class="cls-7" d="M840.47,739.04s39,172-45,278"/>
  <g>
    <path class="cls-10" d="M629.78,515.8c.09.66.16,1.33.22,1.99.87,9.43-.15,18.92-.74,28.34-.4,6.46-.81,12.91-1.21,19.37-.37,5.94-.33,11.8-2.52,17.42-.39.99-1.11,2.14-2.17,2.02-.9-.1-1.41-1.07-1.69-1.93-1.6-4.97-.8-11.38-.85-16.55-.06-6.46.03-12.93.29-19.39.49-12.69,1.58-25.37,3.32-37.95.07-.47.15-.98.48-1.32.95-.97,2.51.29,3.1,1.52.97,2.03,1.47,4.24,1.77,6.48Z"/>
    <path class="cls-10" d="M675.22,515.8c-.09.66-.16,1.33-.22,1.99-.87,9.43.15,18.92.74,28.34.4,6.46.81,12.91,1.21,19.37.37,5.94.33,11.8,2.52,17.42.39.99,1.11,2.14,2.17,2.02.9-.1,1.41-1.07,1.69-1.93,1.6-4.97.8-11.38.85-16.55.06-6.46-.03-12.93-.29-19.39-.49-12.69-1.58-25.37-3.32-37.95-.07-.47-.15-.98-.48-1.32-.95-.97-2.51.29-3.1,1.52-.97,2.03-1.47,4.24-1.77,6.48Z"/>
  </g>
  <g>
    <path class="cls-10" d="M540.24,927.39c28.13-10.78,39.22-44.79,40.38-48.52,3.17-10.19,5.04-22.52,2.7-23.38-2.65-.98-6.41,14.45-19.69,28.1-20.51,21.08-45.1,18.75-46.9,31.89-.67,4.9,2.06,10.16,5.59,12.62,5.59,3.9,13.48.99,17.92-.71Z"/>
    <path class="cls-10" d="M764.76,927.39c-28.13-10.78-39.22-44.79-40.38-48.52-3.17-10.19-5.04-22.52-2.7-23.38,2.65-.98,6.41,14.45,19.69,28.1,20.51,21.08,45.1,18.75,46.9,31.89.67,4.9-2.06,10.16-5.59,12.62-5.59,3.9-13.48.99-17.92-.71Z"/>
  </g>
  <path class="cls-10" d="M623.42,605.94c-2.28.08-2.97,9.94-2.54,15.95.24,3.26.7,3.91,1.19,3.97,1.36.18,4.12-3.98,4.91-8,1.13-5.81-1.73-11.98-3.56-11.92Z"/>
  <path class="cls-10" d="M681.58,605.94c2.28.08,2.97,9.94,2.54,15.95-.24,3.26-.7,3.91-1.19,3.97-1.36.18-4.12-3.98-4.91-8-1.13-5.81,1.73-11.98,3.56-11.92Z"/>
</svg>