<?xml version="1.0" encoding="UTF-8"?>
<svg id="Layer_1" xmlns="http://www.w3.org/2000/svg" xmlns:xlink="http://www.w3.org/1999/xlink" viewBox="0 0 1305 1430.89">
  <defs>
    <style>
      .cls-1 {
        fill: url(#linear-gradient-2);
      }

      .cls-1, .cls-2, .cls-3 {
        stroke: #300942;
        stroke-width: 11px;
      }

      .cls-1, .cls-2, .cls-3, .cls-4 {
        stroke-linecap: round;
        stroke-miterlimit: 10;
      }

      .cls-2 {
        fill: url(#linear-gradient);
      }

      .cls-5 {
        fill: #300942;
      }

      .cls-3, .cls-4 {
        fill: none;
      }

      .cls-6 {
        fill: #fff;
      }

      .cls-7 {
        fill: #22d6b7;
      }

      .cls-4 {
        stroke: #fff;
        stroke-width: 14px;
      }
    </style>
    <linearGradient id="linear-gradient" x1="167.26" y1="766.44" x2="624.72" y2="766.44" gradientUnits="userSpaceOnUse">
      <stop offset="0" stop-color="#fe4a8b"/>
      <stop offset=".47" stop-color="#bb72dd"/>
      <stop offset="1" stop-color="#22d6b7"/>
    </linearGradient>
    <linearGradient id="linear-gradient-2" x1="3908.91" y1="766.44" x2="4366.37" y2="766.44" gradientTransform="translate(5046.65) rotate(-180) scale(1 -1)" xlink:href="#linear-gradient"/>
  </defs>
  <g>
    <g>
      <path class="cls-5" d="M20,480.54v469.81c0,80.61,43,155.09,112.81,195.4l406.87,234.91c69.81,40.3,155.82,40.3,225.63,0l406.87-234.91c69.81-40.3,112.81-114.79,112.81-195.4v-469.81c0-80.61-43-155.09-112.81-195.4L765.31,50.23c-69.81-40.3-155.82-40.3-225.63,0l-406.87,234.91c-69.81,40.3-112.81,114.79-112.81,195.4Z"/>
      <path class="cls-7" d="M652.5,1430.89c-43.06,0-85.53-11.38-122.81-32.91l-406.87-234.91c-37.29-21.53-68.38-52.62-89.91-89.91C11.38,1035.88,0,993.41,0,950.35v-469.81c0-43.06,11.38-85.53,32.91-122.81,21.53-37.29,52.62-68.38,89.91-89.91L529.69,32.91C566.97,11.38,609.44,0,652.5,0s85.53,11.38,122.81,32.91l406.87,234.91c37.29,21.53,68.38,52.62,89.91,89.91,21.53,37.29,32.91,79.76,32.91,122.81v469.81c0,43.06-11.38,85.53-32.91,122.81-21.53,37.29-52.62,68.38-89.91,89.91l-406.87,234.91c-37.29,21.53-79.76,32.91-122.81,32.91ZM652.5,40.09c-35.55,0-71.1,9.15-102.81,27.46l-406.87,234.91c-63.42,36.61-102.81,104.85-102.81,178.07v469.81c0,73.23,39.4,141.46,102.81,178.08l406.87,234.91c63.42,36.61,142.21,36.61,205.62,0l406.87-234.91c63.42-36.61,102.81-104.85,102.81-178.08v-469.81c0-73.23-39.4-141.46-102.81-178.08l-406.87-234.91c-31.71-18.31-67.26-27.46-102.81-27.46Z"/>
    </g>
    <path class="cls-7" d="M651.34,1329.96c-35.76,0-71.53-9.21-103.42-27.62l-354.97-204.94c-63.79-36.83-103.42-105.47-103.42-179.14v-409.89c0-73.66,39.63-142.3,103.42-179.14l354.97-204.94c63.79-36.83,143.05-36.83,206.85,0l354.97,204.94c63.79,36.83,103.42,105.47,103.42,179.14v409.89c0,73.66-39.63,142.3-103.42,179.14l-354.97,204.94c-31.9,18.42-67.66,27.62-103.42,27.62ZM651.34,116.66c-32.3,0-64.61,8.32-93.42,24.95l-354.97,204.94c-57.63,33.27-93.42,95.27-93.42,161.81v409.89c0,66.54,35.8,128.54,93.42,161.81l354.97,204.94c57.63,33.27,129.22,33.27,186.85,0l354.97-204.94c57.63-33.27,93.42-95.27,93.42-161.81v-409.89c0-66.54-35.8-128.54-93.42-161.81l-354.97-204.94c-28.81-16.63-61.12-24.95-93.42-24.95Z"/>
  </g>
  <g>
    <path class="cls-2" d="M624.03,743.05c-2.66-10.39-13.58-17.78-24.95-19.16-31.76-3.85-57.08,26.32-69.01,49.86-9.65,19.05-15.17,40.06-18.74,60.78,5.14-29.83,9.66-59.84,13.64-89.78,3.59-26.99,8.36-54.03,11.11-81.06,2.52-24.78,9.12-48.91,11.58-73.71,1.25-12.57,2.95-24.95-5.07-36.01-6.56-9.05-18.04-14.91-29.57-13.85-15.1,1.4-22.63,12.75-26.81,25.13-15.95,47.22-24.34,97.92-35.62,146.38-3.44,14.78-5.72,24.72-7.75,33.65-.22.97-1.1,1.64-2.09,1.59h0c-1.11-.05-1.98-.97-1.97-2.08.12-8.66.26-17.32.41-25.98.46-27.19,2.1-54.56,1.73-81.7-.35-24.89,3.44-49.54,3.04-74.44-.2-12.62.07-25.1-9.18-35.3-7.56-8.35-19.65-13.03-30.99-10.82-14.86,2.9-21.04,14.93-23.77,27.66-10.43,48.53-12.94,99.79-18.58,149.09-2.44,21.35-3.69,32.78-5.06,45.42-.12-1.48.22,1.77.09.3-2.25-27.11-3.8-59.24-6.88-86.23-2.82-24.75-1.51-49.63-4.38-74.38-1.46-12.55-2.43-24.99-12.65-34.35-8.36-7.66-20.86-11.28-31.94-8.1-14.5,4.17-19.46,16.68-20.92,29.59-5.55,49.23-2.95,100.47-3.66,150.06-.5,34.7-.47,43.31-.74,73.18,0,1.06-1.49,1.28-1.81.28-4.29-13.54-15.42-48.49-22.25-67.71-7.96-22.41-12.1-45.7-20.11-68.09-4.06-11.35-7.65-22.7-19.13-29.46-9.4-5.53-21.76-6.55-31.34-1.53-12.54,6.57-14.43,19.1-12.99,31.33,5.48,46.65,18.94,93.64,28.99,139.72,4.76,21.84,7.16,32.55,10.14,45.8,1.83,8.14,3.88,17.25,6.83,30.5l-.22.09c2.96,12.65,6.09,25.32,9.94,37.74,5.8,18.73,13.23,36.88,24.1,53.49,19.97,30.51,54.11,55.4,92.48,55.88,18.82.24,37.16-5.29,55.89-7.02,22.54-2.08,45.22,1.36,67.88,1.49,22.65.13,46.72-3.67,63.64-17.69,12.68-10.51,19.87-25.54,25.34-40.5,9.93-27.14,20.5-54.12,28.6-81.8,5.77-19.72,10.44-39.71,16.29-59.41,5.52-18.56,19.13-33.59,25.12-51.91,1.79-5.49,2.77-11.38,1.34-16.96Z"/>
    <path class="cls-3" d="M410.5,950.77s12.12-103.38,111.68-76.58"/>
    <path class="cls-3" d="M524.73,759.96s-21.06,95.72-14.68,111.04"/>
    <path class="cls-6" d="M583.66,741.68c-2.27.45-4.51,1.23-6.63,2.15-12.02,5.2-22.11,14.72-27.99,26.42-3.36,6.68,7.15,1.86,9.3.22,2.75-2.09,4.99-4.76,7.27-7.35,6.06-6.9,12.72-13.52,20.54-18.26,1.71-1.04.78-3.66-1.2-3.39-.43.06-.86.13-1.29.22Z"/>
    <path class="cls-6" d="M545.04,780.21c-1.65-.18-3.29,4-3.83,6.38-.28,1.22-.47,2.13,0,2.55.98.87,4.73-.42,5.74-3.19.9-2.46-.55-5.59-1.91-5.74Z"/>
    <path class="cls-6" d="M504.33,577.62c-.03.67-.08,1.33-.15,2-.86,9.44-3.59,18.57-5.89,27.73-1.57,6.28-3.14,12.55-4.72,18.83-1.45,5.77-2.47,11.54-5.65,16.67-.56.91-1.48,1.9-2.5,1.59-.87-.26-1.19-1.3-1.31-2.2-.66-5.18,1.29-11.33,2.18-16.43,1.12-6.37,2.39-12.71,3.81-19.01,2.8-12.39,6.17-24.66,10.17-36.71.15-.45.33-.94.72-1.21,1.11-.78,2.42.75,2.77,2.06.59,2.17.67,4.44.56,6.69Z"/>
    <path class="cls-6" d="M398.13,546.6c.04.67.07,1.34.09,2,.25,9.47-1.4,18.87-2.61,28.23-.83,6.42-1.66,12.83-2.49,19.25-.76,5.9-1.11,11.75-3.67,17.21-.45.97-1.25,2.06-2.3,1.88-.89-.16-1.34-1.16-1.56-2.03-1.26-5.06-.05-11.41.25-16.57.37-6.45.89-12.9,1.57-19.32,1.33-12.63,3.25-25.21,5.83-37.65.1-.47.22-.97.57-1.29,1.01-.91,2.49.46,2.99,1.72.84,2.09,1.18,4.33,1.33,6.58Z"/>
    <path class="cls-6" d="M294.66,592.15c.09.66.16,1.33.22,1.99.87,9.43-.15,18.92-.74,28.34-.4,6.46-.81,12.91-1.21,19.37-.37,5.94-.33,11.8-2.52,17.42-.39.99-1.11,2.14-2.17,2.02-.9-.1-1.41-1.07-1.69-1.93-1.6-4.97-.8-11.38-.85-16.55-.06-6.46.03-12.93.29-19.39.49-12.69,1.58-25.37,3.32-37.95.07-.47.15-.98.48-1.32.95-.97,2.51.29,3.1,1.52.97,2.03,1.47,4.24,1.77,6.48Z"/>
    <path class="cls-6" d="M188.25,662.91c4.17,8.96,6.17,18.84,8.64,28.45,1.55,6.04,3.32,12.03,4.68,18.12,1.25,5.58,3.07,12.44,2.1,18.19-.11.66-.29,1.34-.77,1.8-.86.81-2.35.52-3.19-.31s-1.2-2.02-1.53-3.15c-6.26-21.72-12.53-43.46-17.18-65.57-.24-1.13-.42-2.45.36-3.3.76-.83,2.14-.78,3.09-.18s1.55,1.6,2.09,2.59c.61,1.11,1.17,2.23,1.7,3.37Z"/>
    <path class="cls-6" d="M203.63,747.03c-2.18.68.64,14.27,3.19,22.34,1.38,4.38,2.06,5.14,2.55,5.11,1.38-.1,2.58-6.45,1.91-12.12-.96-8.2-5.92-15.86-7.66-15.32Z"/>
    <path class="cls-6" d="M259.06,918.68c.14,2.23.87,4.6,1.78,6.58,10.69,23.29,30.95,41.08,54.53,50.68,3.59,1.46,7.89,2.67,11.15.58,3.63-2.34,3.91-7.94,1.53-11.54s-6.61-5.53-10.77-6.67-8.52-1.72-12.46-3.48c-16.52-7.38-18.83-31.36-33.97-41.26-2.69-1.76-6.29-2.98-9.04-1.32-2.23,1.34-2.91,3.78-2.74,6.43Z"/>
    <path class="cls-3" d="M305.73,835.09s31.52-34,79.77-12.76c30.36,13.36,72.08-.81,72.08-.81"/>
    <path class="cls-1" d="M680.97,743.05c2.66-10.39,13.58-17.78,24.95-19.16,31.76-3.85,57.08,26.32,69.01,49.86,9.65,19.05,15.17,40.06,18.74,60.78-5.14-29.83-9.66-59.84-13.64-89.78-3.59-26.99-8.36-54.03-11.11-81.06-2.52-24.78-9.12-48.91-11.58-73.71-1.25-12.57-2.95-24.95,5.07-36.01,6.56-9.05,18.04-14.91,29.57-13.85,15.1,1.4,22.63,12.75,26.81,25.13,15.95,47.22,24.34,97.92,35.62,146.38,3.44,14.78,5.72,24.72,7.75,33.65.22.97,1.1,1.64,2.09,1.59h0c1.11-.05,1.98-.97,1.97-2.08-.12-8.66-.26-17.32-.41-25.98-.46-27.19-2.1-54.56-1.73-81.7.35-24.89-3.44-49.54-3.04-74.44.2-12.62-.07-25.1,9.18-35.3,7.56-8.35,19.65-13.03,30.99-10.82,14.86,2.9,21.04,14.93,23.77,27.66,10.43,48.53,12.94,99.79,18.58,149.09,2.44,21.35,3.69,32.78,5.06,45.42.12-1.48-.22,1.77-.09.3,2.25-27.11,3.8-59.24,6.88-86.23,2.82-24.75,1.51-49.63,4.38-74.38,1.46-12.55,2.43-24.99,12.65-34.35,8.36-7.66,20.86-11.28,31.94-8.1,14.5,4.17,19.46,16.68,20.92,29.59,5.55,49.23,2.95,100.47,3.66,150.06.5,34.7.47,43.31.74,73.18,0,1.06,1.49,1.28,1.81.28,4.29-13.54,15.42-48.49,22.25-67.71,7.96-22.41,12.1-45.7,20.11-68.09,4.06-11.35,7.65-22.7,19.13-29.46,9.4-5.53,21.76-6.55,31.34-1.53,12.54,6.57,14.43,19.1,12.99,31.33-5.48,46.65-18.94,93.64-28.99,139.72-4.76,21.84-7.16,32.55-10.14,45.8-1.83,8.14-3.88,17.25-6.83,30.5l.22.09c-2.96,12.65-6.09,25.32-9.94,37.74-5.8,18.73-13.23,36.88-24.1,53.49-19.97,30.51-54.11,55.4-92.48,55.88-18.82.24-37.16-5.29-55.89-7.02-22.54-2.08-45.22,1.36-67.88,1.49-22.65.13-46.72-3.67-63.64-17.69-12.68-10.51-19.87-25.54-25.34-40.5-9.93-27.14-20.5-54.12-28.6-81.8-5.77-19.72-10.44-39.71-16.29-59.41-5.52-18.56-19.13-33.59-25.12-51.91-1.79-5.49-2.77-11.38-1.34-16.96Z"/>
    <path class="cls-3" d="M894.5,950.77s-12.12-103.38-111.68-76.58"/>
    <path class="cls-3" d="M780.27,759.96s21.06,95.72,14.68,111.04"/>
    <path class="cls-6" d="M721.34,741.68c2.27.45,4.51,1.23,6.63,2.15,12.02,5.2,22.11,14.72,27.99,26.42,3.36,6.68-7.15,1.86-9.3.22-2.75-2.09-4.99-4.76-7.27-7.35-6.06-6.9-12.72-13.52-20.54-18.26-1.71-1.04-.78-3.66,1.2-3.39.43.06.86.13,1.29.22Z"/>
    <path class="cls-6" d="M759.96,780.21c1.65-.18,3.29,4,3.83,6.38.28,1.22.47,2.13,0,2.55-.98.87-4.73-.42-5.74-3.19-.9-2.46.55-5.59,1.91-5.74Z"/>
    <path class="cls-6" d="M800.67,577.62c.03.67.08,1.33.15,2,.86,9.44,3.59,18.57,5.89,27.73,1.57,6.28,3.14,12.55,4.72,18.83,1.45,5.77,2.47,11.54,5.65,16.67.56.91,1.48,1.9,2.5,1.59.87-.26,1.19-1.3,1.31-2.2.66-5.18-1.29-11.33-2.18-16.43-1.12-6.37-2.39-12.71-3.81-19.01-2.8-12.39-6.17-24.66-10.17-36.71-.15-.45-.33-.94-.72-1.21-1.11-.78-2.42.75-2.77,2.06-.59,2.17-.67,4.44-.56,6.69Z"/>
    <path class="cls-6" d="M906.87,546.6c-.04.67-.07,1.34-.09,2-.25,9.47,1.4,18.87,2.61,28.23l2.49,19.25c.76,5.9,1.11,11.75,3.67,17.21.45.97,1.25,2.06,2.3,1.88.89-.16,1.34-1.16,1.56-2.03,1.26-5.06.05-11.41-.25-16.57-.37-6.45-.89-12.9-1.57-19.32-1.33-12.63-3.25-25.21-5.83-37.65-.1-.47-.22-.97-.57-1.29-1.01-.91-2.49.46-2.99,1.72-.84,2.09-1.18,4.33-1.33,6.58Z"/>
    <path class="cls-6" d="M1010.34,592.15c-.09.66-.16,1.33-.22,1.99-.87,9.43.15,18.92.74,28.34.4,6.46.81,12.91,1.21,19.37.37,5.94.33,11.8,2.52,17.42.39.99,1.11,2.14,2.17,2.02.9-.1,1.41-1.07,1.69-1.93,1.6-4.97.8-11.38.85-16.55.06-6.46-.03-12.93-.29-19.39-.49-12.69-1.58-25.37-3.32-37.95-.07-.47-.15-.98-.48-1.32-.95-.97-2.51.29-3.1,1.52-.97,2.03-1.47,4.24-1.77,6.48Z"/>
    <path class="cls-6" d="M1116.56,662.83c-.92,1.87-1.63,3.86-2.28,5.81-3.69,11.01-5.82,22.47-8.68,33.72-2.09,8.2-4.59,16.4-5.01,24.85-.05.92-.05,1.91.47,2.66,2.91,4.25,8.71-14.06,9.33-16.1,5.45-18.07,9.69-36.52,13.35-55.03.14-.71.25-1.54-.25-2.06-.75-.8-2.1-.17-2.91.57-1.73,1.57-3,3.5-4.02,5.58Z"/>
    <path class="cls-6" d="M1101.37,747.03c2.18.68-.64,14.27-3.19,22.34-1.38,4.38-2.06,5.14-2.55,5.11-1.38-.1-2.58-6.45-1.91-12.12.96-8.2,5.92-15.86,7.66-15.32Z"/>
    <path class="cls-6" d="M1045.94,918.68c-.14,2.23-.87,4.6-1.78,6.58-10.69,23.29-30.95,41.08-54.53,50.68-3.59,1.46-7.89,2.67-11.15.58-3.63-2.34-3.91-7.94-1.53-11.54,2.38-3.6,6.61-5.53,10.77-6.67s8.52-1.72,12.46-3.48c16.52-7.38,18.83-31.36,33.97-41.26,2.69-1.76,6.29-2.98,9.04-1.32,2.23,1.34,2.91,3.78,2.74,6.43Z"/>
    <path class="cls-3" d="M999.27,835.09s-31.52-34-79.77-12.76c-30.36,13.36-72.08-.81-72.08-.81"/>
  </g>
  <g>
    <line class="cls-4" x1="652.5" y1="337.23" x2="652.5" y2="478.5"/>
    <line class="cls-4" x1="792.5" y1="407.5" x2="759.5" y2="478.5"/>
    <line class="cls-4" x1="512.5" y1="407.5" x2="545.5" y2="478.5"/>
  </g>
</svg>