<?xml version="1.0" encoding="UTF-8"?>
<svg id="Layer_1" xmlns="http://www.w3.org/2000/svg" xmlns:xlink="http://www.w3.org/1999/xlink" viewBox="0 0 1305 1430.89">
  <defs>
    <style>
      .cls-1 {
        fill: url(#linear-gradient);
        stroke-width: 12.84px;
      }

      .cls-1, .cls-2 {
        stroke: #300942;
        stroke-linecap: round;
        stroke-miterlimit: 10;
      }

      .cls-3 {
        fill: #300942;
      }

      .cls-2 {
        fill: none;
        stroke-width: 14px;
      }

      .cls-4 {
        fill: #fff;
      }

      .cls-5 {
        fill: #22d6b7;
      }
    </style>
    <linearGradient id="linear-gradient" x1="289.58" y1="762.53" x2="1006.43" y2="762.53" gradientUnits="userSpaceOnUse">
      <stop offset="0" stop-color="#fe4a8b"/>
      <stop offset=".47" stop-color="#bb72dd"/>
      <stop offset="1" stop-color="#22d6b7"/>
    </linearGradient>
  </defs>
  <g>
    <g>
      <path class="cls-3" d="M20,480.54v469.81c0,80.61,43,155.09,112.81,195.4l406.87,234.91c69.81,40.3,155.82,40.3,225.63,0l406.87-234.91c69.81-40.3,112.81-114.79,112.81-195.4v-469.81c0-80.61-43-155.09-112.81-195.4L765.31,50.23c-69.81-40.3-155.82-40.3-225.63,0l-406.87,234.91c-69.81,40.3-112.81,114.79-112.81,195.4Z"/>
      <path class="cls-5" d="M652.5,1430.89c-43.06,0-85.53-11.38-122.81-32.91l-406.87-234.91c-37.29-21.53-68.38-52.62-89.91-89.91C11.38,1035.88,0,993.41,0,950.35v-469.81c0-43.06,11.38-85.53,32.91-122.81,21.53-37.29,52.62-68.38,89.91-89.91L529.69,32.91C566.97,11.38,609.44,0,652.5,0s85.52,11.38,122.81,32.91l406.87,234.91c37.29,21.53,68.38,52.62,89.91,89.91,21.53,37.29,32.91,79.76,32.91,122.81v469.81c0,43.06-11.38,85.53-32.91,122.81-21.53,37.29-52.62,68.38-89.91,89.91l-406.87,234.91c-37.29,21.53-79.76,32.91-122.81,32.91ZM652.5,40.09c-35.55,0-71.1,9.15-102.81,27.46l-406.87,234.91c-63.42,36.61-102.81,104.85-102.81,178.07v469.81c0,73.23,39.39,141.46,102.81,178.08l406.87,234.91c63.42,36.61,142.21,36.61,205.62,0l406.87-234.91c63.42-36.61,102.81-104.85,102.81-178.08v-469.81c0-73.23-39.4-141.46-102.81-178.08l-406.87-234.91c-31.71-18.31-67.26-27.46-102.81-27.46Z"/>
    </g>
    <path class="cls-5" d="M651.34,1329.96c-35.76,0-71.53-9.21-103.42-27.62l-354.97-204.94c-63.79-36.83-103.42-105.47-103.42-179.14v-409.89c0-73.66,39.63-142.3,103.42-179.14l354.97-204.94c63.79-36.83,143.05-36.83,206.85,0l354.97,204.94c63.79,36.83,103.42,105.47,103.42,179.14v409.89c0,73.66-39.63,142.3-103.42,179.14l-354.97,204.94c-31.9,18.42-67.66,27.62-103.42,27.62ZM651.34,116.66c-32.3,0-64.61,8.32-93.42,24.95l-354.97,204.94c-57.63,33.27-93.42,95.27-93.42,161.81v409.89c0,66.54,35.8,128.54,93.42,161.81l354.97,204.94c57.63,33.27,129.22,33.27,186.85,0l354.97-204.94c57.63-33.27,93.42-95.27,93.42-161.81v-409.89c0-66.54-35.8-128.54-93.42-161.81l-354.97-204.94c-28.81-16.63-61.12-24.95-93.42-24.95Z"/>
  </g>
  <path class="cls-1" d="M1005.36,725.87c-4.17-16.27-21.28-27.87-39.1-30.03-49.76-6.03-89.44,41.25-108.13,78.14-15.12,29.85-23.77,62.77-29.36,95.25,8.06-46.75,15.13-93.77,21.37-140.68,5.62-42.29,13.11-84.67,17.41-127.02,3.94-38.84,14.28-76.65,18.14-115.5,1.96-19.69,4.62-39.09-7.94-56.42-10.28-14.19-28.26-23.37-46.34-21.7-23.67,2.19-35.47,19.98-42.02,39.38-24.99,73.99-38.14,153.45-55.81,229.39-5.39,23.15-8.97,38.73-12.15,52.72-.34,1.51-1.72,2.57-3.27,2.5h0c-1.74-.07-3.11-1.52-3.08-3.26.19-13.57.41-27.15.64-40.72.72-42.6,3.3-85.49,2.71-128.02-.54-39.01,5.39-77.63,4.76-116.64-.32-19.78.1-39.33-14.38-55.31-11.85-13.08-30.79-20.42-48.56-16.96-23.28,4.54-32.97,23.4-37.25,43.34-16.34,76.06-20.28,156.37-29.12,233.63-3.83,33.46-5.78,51.36-7.92,71.18-.19-2.32.34,2.78.15.46-3.52-42.48-5.96-92.82-10.78-135.12-4.42-38.79-2.36-77.76-6.87-116.55-2.29-19.66-3.81-39.17-19.83-53.83-13.1-12-32.69-17.68-50.04-12.69-22.73,6.53-30.49,26.14-32.78,46.37-8.7,77.14-4.63,157.44-5.74,235.14-.78,54.38-.73,67.87-1.16,114.68-.01,1.65-2.34,2.01-2.84.44-6.71-21.22-24.17-75.98-34.86-106.1-12.47-35.11-18.97-71.61-31.52-106.71-6.36-17.79-11.98-35.58-29.98-46.17-14.73-8.67-34.1-10.26-49.11-2.4-19.65,10.3-22.61,29.93-20.36,49.1,8.58,73.1,29.69,146.74,45.42,218.94,7.46,34.23,11.22,51,15.89,71.76,2.87,12.76,6.08,27.04,10.7,47.79l-.34.14c4.63,19.82,9.55,39.67,15.58,59.13,9.1,29.35,20.73,57.79,37.77,83.82,31.29,47.81,84.8,86.81,144.92,87.57,29.5.37,58.23-8.28,87.59-10.99,35.32-3.26,70.87,2.13,106.36,2.33s73.21-5.74,99.72-27.72c19.86-16.46,31.13-40.02,39.71-63.46,15.56-42.53,32.12-84.81,44.82-128.19,9.05-30.9,16.36-62.23,25.53-93.1,8.64-29.08,29.98-52.63,39.37-81.34,2.81-8.6,4.34-17.83,2.1-26.58Z"/>
  <path class="cls-2" d="M670.75,1051.38s19-162,175-120"/>
  <path class="cls-2" d="M849.75,752.38s-33,150-23,174"/>
  <path class="cls-4" d="M942.1,723.72c-3.56.7-7.07,1.93-10.38,3.37-18.83,8.15-34.64,23.07-43.87,41.39-5.27,10.47,11.2,2.91,14.58.35,4.31-3.27,7.83-7.46,11.4-11.53,9.5-10.82,19.94-21.19,32.18-28.61,2.68-1.62,1.21-5.74-1.89-5.31-.67.09-1.35.21-2.02.34Z"/>
  <path class="cls-4" d="M881.58,784.1c-2.58-.29-5.15,6.27-6,10-.44,1.91-.74,3.34,0,4,1.53,1.36,7.42-.65,9-5,1.4-3.86-.87-8.76-3-9Z"/>
  <path class="cls-4" d="M516.51,346.51l15.65,11.37c1.94,1.41,4.55-.49,3.81-2.77l-5.98-18.39c-.33-1.02.03-2.14.9-2.77l15.65-11.37c1.94-1.41.94-4.48-1.45-4.48h-19.34c-1.07,0-2.02-.69-2.35-1.71l-5.98-18.39c-.74-2.28-3.97-2.28-4.71,0l-5.98,18.39c-.33,1.02-1.28,1.71-2.35,1.71h-19.34c-2.4,0-3.39,3.07-1.45,4.48l15.65,11.37c.87.63,1.23,1.75.9,2.77l-5.98,18.39c-.74,2.28,1.87,4.18,3.81,2.77l15.65-11.37c.87-.63,2.04-.63,2.91,0Z"/>
  <rect class="cls-4" x="292.2" y="437.55" width="51.11" height="51.11" rx="8.06" ry="8.06" transform="translate(-243.68 447.97) rotate(-54)"/>
  <circle class="cls-4" cx="1004.58" cy="622.1" r="32.5"/>
  <path class="cls-4" d="M846.45,325.09l6.11-17.52c1.22-3.48,6.11-3.58,7.45-.14l6.76,17.27c.42,1.08,1.3,1.92,2.39,2.3l17.52,6.11c3.48,1.22,3.58,6.11.14,7.45l-17.27,6.76c-1.08.42-1.92,1.3-2.3,2.39l-6.11,17.52c-1.22,3.48-6.11,3.58-7.45.14l-6.76-17.27c-.42-1.08-1.3-1.92-2.39-2.3l-17.52-6.11c-3.48-1.22-3.58-6.11-.14-7.45l17.27-6.76c1.08-.42,1.92-1.3,2.3-2.39Z"/>
  <g id="PWxw4J">
    <path class="cls-4" d="M676.88,290.32c-4.69,0-9.22,0-13.74,0-2.94,0-5.89.13-8.82-.08-1.27-.09-3.07-.57-3.55-1.45-.47-.88.07-2.72.76-3.75,8.35-12.44,16.82-24.8,25.25-37.19,6.26-9.21,12.52-18.42,18.78-27.63.28-.42.57-.84.87-1.25,1-1.39,1.87-3.12,4.06-2.23,2.15.87,1.77,2.73,1.43,4.43-1,4.96-2.05,9.9-3.1,14.85-2.15,10.09-4.32,20.17-6.45,30.26-.14.66-.02,1.37-.02,2.33,6.47,0,12.84-.08,19.21.06,1.35.03,3.34.51,3.85,1.43.51.92-.11,2.89-.83,4.02-13.96,21.95-27.98,43.86-42.11,65.7-.76,1.17-2.79,2.49-3.92,2.26-2.21-.46-1.87-2.55-1.46-4.5,3.26-15.22,6.43-30.47,9.61-45.71.08-.38.09-.77.18-1.55Z"/>
  </g>
  <path class="cls-4" d="M817.78,466.65c-.05,1.05-.13,2.09-.23,3.13-1.34,14.79-5.63,29.1-9.22,43.45-2.46,9.83-4.93,19.67-7.39,29.5-2.27,9.05-3.87,18.09-8.85,26.12-.88,1.42-2.32,2.98-3.92,2.5-1.36-.41-1.87-2.04-2.05-3.45-1.04-8.11,2.01-17.76,3.41-25.75,1.75-9.98,3.74-19.91,5.97-29.79,4.38-19.42,9.66-38.64,15.94-57.53.24-.71.51-1.47,1.12-1.9,1.74-1.23,3.79,1.17,4.35,3.22.92,3.4,1.05,6.95.87,10.49Z"/>
  <path class="cls-4" d="M651.36,418.03c.07,1.05.11,2.09.14,3.14.39,14.84-2.2,29.56-4.1,44.23-1.3,10.05-2.6,20.11-3.9,30.16-1.2,9.25-1.74,18.42-5.75,26.97-.71,1.52-1.96,3.23-3.6,2.94-1.4-.25-2.09-1.81-2.44-3.19-1.98-7.93-.07-17.88.39-25.97.57-10.11,1.39-20.21,2.46-30.28,2.09-19.8,5.09-39.5,9.13-59,.15-.73.34-1.52.89-2.02,1.58-1.42,3.9.72,4.69,2.69,1.31,3.27,1.86,6.78,2.09,10.32Z"/>
  <path class="cls-4" d="M489.22,489.41c.14,1.04.25,2.08.35,3.12,1.37,14.78-.24,29.64-1.16,44.41-.63,10.12-1.26,20.24-1.9,30.36-.58,9.31-.51,18.49-3.95,27.3-.61,1.56-1.74,3.36-3.4,3.17-1.41-.16-2.21-1.67-2.64-3.02-2.5-7.79-1.25-17.83-1.33-25.94-.1-10.13.05-20.26.45-30.38.77-19.89,2.47-39.75,5.21-59.47.1-.74.24-1.54.76-2.08,1.49-1.52,3.94.46,4.86,2.38,1.53,3.18,2.3,6.65,2.77,10.15Z"/>
  <path class="cls-4" d="M322.68,600.21c.44.95.86,1.91,1.26,2.88,5.7,13.71,8.58,28.37,12.09,42.75,2.4,9.85,4.81,19.7,7.21,29.55,2.21,9.06,5,17.81,4.34,27.24-.12,1.67-.66,3.72-2.31,4.04-1.39.27-2.61-.94-3.42-2.1-4.7-6.69-6.5-16.65-8.98-24.37-3.1-9.64-5.97-19.36-8.6-29.14-5.17-19.22-9.45-38.69-12.7-58.33-.12-.74-.23-1.54.11-2.21.96-1.9,3.9-.73,5.35.83,2.4,2.58,4.17,5.66,5.66,8.87Z"/>
  <path class="cls-4" d="M346.58,732.1c-3.42,1.06,1.01,22.36,5,35,2.17,6.86,3.23,8.05,4,8,2.16-.15,4.04-10.1,3-19-1.51-12.84-9.27-24.85-12-24Z"/>
  <path class="cls-4" d="M433.44,1001.09c.22,3.49,1.37,7.21,2.8,10.32,16.76,36.5,48.51,64.37,85.45,79.41,5.62,2.29,12.36,4.19,17.47.9,5.69-3.66,6.13-12.44,2.39-18.08-3.74-5.64-10.36-8.66-16.88-10.46-6.52-1.8-13.34-2.69-19.52-5.45-25.89-11.57-29.5-49.14-53.24-64.65-4.22-2.76-9.85-4.67-14.17-2.07-3.49,2.1-4.56,5.93-4.3,10.08Z"/>
  <path class="cls-2" d="M654.58,1118.1c-11,21-21,28-70,37"/>
  <path class="cls-2" d="M506.58,870.1s49.39-53.27,125-20c47.57,20.93,112.95-1.27,112.95-1.27"/>
</svg>