<?xml version="1.0" encoding="UTF-8"?>
<svg id="Layer_1" xmlns="http://www.w3.org/2000/svg" xmlns:xlink="http://www.w3.org/1999/xlink" viewBox="0 0 1305 1430.89">
  <defs>
    <style>
      .cls-1 {
        fill: url(#linear-gradient-2);
      }

      .cls-2 {
        fill: url(#linear-gradient);
      }

      .cls-3 {
        fill: #300942;
      }

      .cls-4 {
        fill: #fff;
      }

      .cls-5 {
        fill: #22d6b7;
      }
    </style>
    <linearGradient id="linear-gradient" x1="2753.28" y1="173.02" x2="3285.67" y2="173.02" gradientTransform="translate(-2565.43 1278.61) rotate(-13.45)" gradientUnits="userSpaceOnUse">
      <stop offset="0" stop-color="#fe4a8b"/>
      <stop offset=".47" stop-color="#bb72dd"/>
      <stop offset="1" stop-color="#22d6b7"/>
    </linearGradient>
    <linearGradient id="linear-gradient-2" x1="10226.28" y1="1960.41" x2="10758.67" y2="1960.41" gradientTransform="translate(11554.21 1278.61) rotate(-166.55) scale(1 -1)" xlink:href="#linear-gradient"/>
  </defs>
  <g>
    <g>
      <path class="cls-3" d="M20,480.54v469.81c0,80.61,43,155.09,112.81,195.4l406.87,234.91c69.81,40.3,155.82,40.3,225.63,0l406.87-234.91c69.81-40.3,112.81-114.79,112.81-195.4v-469.81c0-80.61-43-155.09-112.81-195.4L765.31,50.23c-69.81-40.3-155.82-40.3-225.63,0l-406.87,234.91c-69.81,40.3-112.81,114.79-112.81,195.4Z"/>
      <path class="cls-5" d="M652.5,1430.89c-43.06,0-85.53-11.38-122.81-32.91l-406.87-234.91c-37.29-21.53-68.38-52.62-89.91-89.91C11.38,1035.88,0,993.41,0,950.35v-469.81c0-43.06,11.38-85.53,32.91-122.81,21.53-37.29,52.62-68.38,89.91-89.91L529.69,32.91C566.97,11.38,609.44,0,652.5,0s85.52,11.38,122.81,32.91l406.87,234.91c37.29,21.53,68.38,52.62,89.91,89.91,21.53,37.29,32.91,79.76,32.91,122.81v469.81c0,43.06-11.38,85.53-32.91,122.81-21.53,37.29-52.62,68.38-89.91,89.91l-406.87,234.91c-37.29,21.53-79.76,32.91-122.81,32.91ZM652.5,40.09c-35.55,0-71.1,9.15-102.81,27.46l-406.87,234.91c-63.42,36.61-102.81,104.85-102.81,178.07v469.81c0,73.23,39.39,141.46,102.81,178.07l406.87,234.91c63.42,36.61,142.21,36.61,205.62,0l406.87-234.91c63.42-36.61,102.81-104.85,102.81-178.07v-469.81c0-73.23-39.4-141.46-102.81-178.07l-406.87-234.91c-31.71-18.31-67.26-27.46-102.81-27.46Z"/>
    </g>
    <path class="cls-5" d="M651.34,1329.96c-35.77,0-71.52-9.21-103.42-27.62l-354.97-204.94c-63.79-36.83-103.42-105.47-103.42-179.14v-409.89c0-73.66,39.63-142.3,103.42-179.14l354.97-204.94c63.79-36.83,143.05-36.83,206.85,0l354.97,204.94c63.79,36.83,103.42,105.47,103.42,179.14v409.89c0,73.66-39.63,142.3-103.42,179.14l-354.97,204.94c-31.89,18.41-67.67,27.62-103.42,27.62ZM651.34,116.66c-32.3,0-64.61,8.32-93.42,24.95l-354.97,204.94c-57.62,33.27-93.42,95.27-93.42,161.81v409.89c0,66.54,35.8,128.54,93.42,161.81l354.97,204.94c57.62,33.27,129.22,33.27,186.85,0l354.97-204.94c57.62-33.27,93.42-95.27,93.42-161.81v-409.89c0-66.54-35.8-128.54-93.42-161.81l-354.97-204.94c-28.81-16.63-61.12-24.95-93.42-24.95Z"/>
  </g>
  <g>
    <g>
      <path class="cls-2" d="M592.8,519.67c12.36-14.91,25.09-29.21,25.22-49.69.11-16.76-8.35-33.44-22.87-41.39-19.02-10.42-37.73-2.12-53.39,10.19-33.31,26.18-64.79,55.63-95.72,85.63-1.56,1.51-4.07-.27-3.15-2.24,12.49-26.74,26.72-52.62,37.73-80.09,7.2-17.98,14.94-35.49,8.8-55.02-5.03-15.98-18.18-29.28-34.45-32.4-21.3-4.09-36.57,9.54-47.71,26.05-38.01,56.33-68.95,119.22-101.27,179.61,5.9-20.41,10.51-40.96,10.05-62.13-.44-20.34-6.42-41.8-21.84-55.08-13.65-11.76-44.95-16.83-55.89,1.98-6.2,10.68-6.22,29.75-8.57,41.87-2.99,15.42-5.98,30.85-8.97,46.27-11.97,61.7-23.93,123.4-35.9,185.1-9.24,47.65-18.53,95.96-15.28,144.39,3.25,48.43,20.52,97.83,56.74,130.15,45.37,40.47,111,47.35,171.8,47.78,60.8.43,124.29-3.11,179.47,22.43,17.08,7.9,36.07,18.7,53.44,11.46,17.61-7.33,23.44-31.02,17-48.98-6.43-17.96-21.63-31.18-36.8-42.75-48.64-37.12-103.33-66.22-149.22-106.7-17.3-15.26-33.98-33.42-38.36-56.07-5.17-26.73,7.9-53.55,23.26-76.03,11.9-17.42,25.7-33.97,43.28-45.62,17.59-11.65,39.43-18.01,60.1-13.79,14.24,2.91,27,10.52,40.53,15.81,13.54,5.29,29.33,8.1,42.24,1.45,12.51-6.44,19.62-21.03,19.24-35.09-.38-14.06-7.41-27.37-17.18-37.49-23.96-24.82-62.19-30.73-96.25-25.25-10.19,1.64-20.17,4.14-30.01,7.16,2.13-2.51,4.27-5.01,6.38-7.54,24.44-29.35,53.13-54.59,77.51-84Z"/>
      <path class="cls-3" d="M618.76,1083.02c-13.28,0-26.43-6.25-38.42-11.94-1.78-.84-3.54-1.68-5.28-2.48-47.34-21.91-102.04-21.88-154.91-21.83-7.24,0-14.72.01-22.05-.04-60.07-.43-127.92-6.62-175.79-49.32-34.13-30.44-55-78.13-58.76-134.27-3.32-49.53,6.18-98.55,15.38-145.95l44.87-231.37c.67-3.46,1.16-7.67,1.67-12.12,1.25-10.84,2.66-23.13,7.61-31.65,4.65-8.01,12.54-13.15,22.8-14.88,14.12-2.37,31.9,2.4,42.29,11.35,14.89,12.83,23.39,33.98,23.94,59.55.15,7.04-.24,13.97-1.01,20.73,25.07-47.64,51.01-96.83,81.13-141.47,15.44-22.89,33.57-32.52,53.88-28.61,17.84,3.43,33.18,17.77,39.09,36.54,6.51,20.68-.84,38.93-7.94,56.57l-1.01,2.52c-7.24,18.07-15.95,35.65-24.37,52.65-1.17,2.37-2.36,4.76-3.54,7.16,24.82-23.69,51.37-47.9,79.68-70.14,21.71-17.06,41.91-20.67,60.05-10.74,15.93,8.72,26.15,27.08,26.02,46.75-.14,21.69-12.72,36.81-24.88,51.43l-1.74,2.09c-12.42,14.99-26.1,29.05-39.32,42.65-10.72,11.02-21.74,22.36-32.04,34.15,4.04-.9,7.97-1.66,11.85-2.28,40.92-6.58,78.89,3.53,101.57,27.03,11.77,12.2,18.48,26.95,18.88,41.54.47,17.13-8.58,33.47-22.52,40.64-12.46,6.42-28.8,6.01-47.23-1.19-4.66-1.82-9.23-3.91-13.65-5.92-8.78-4.01-17.07-7.79-25.89-9.59-17.52-3.58-37.76,1.12-55.54,12.9-14.42,9.55-27.65,23.53-41.63,43.99-18.95,27.73-26.25,51.11-22.32,71.45,4.25,21.96,21.69,39.69,36.41,52.68,26.7,23.55,57.1,43.66,86.5,63.11,20.76,13.73,42.22,27.93,62.38,43.32,16.1,12.28,31.94,26.3,38.83,45.53,3.64,10.16,3.86,21.95.59,32.34-3.62,11.54-11.07,20.16-20.97,24.29-4.85,2.02-9.75,2.86-14.62,2.86ZM426.89,1034.63c52.09,0,105.56.88,153.26,22.96,1.78.82,3.57,1.67,5.38,2.53,14.79,7.02,30.09,14.29,43.18,8.84,14.58-6.07,18.88-26.66,13.63-41.33-5.82-16.26-20.15-28.83-34.77-39.98-19.84-15.14-41.13-29.22-61.72-42.84-29.75-19.68-60.51-40.02-87.83-64.13-16.17-14.26-35.36-33.91-40.3-59.47-4.58-23.69,3.34-50.06,24.21-80.6,14.89-21.79,29.17-36.81,44.94-47.26,20.45-13.54,44.02-18.89,64.67-14.67,10.18,2.08,19.49,6.33,28.5,10.44,4.27,1.95,8.68,3.96,13.02,5.66,10.53,4.11,25.54,7.74,37.26,1.71,9.88-5.09,16.29-16.96,15.95-29.53-.32-11.55-5.81-23.43-15.48-33.44-19.93-20.65-53.92-29.42-90.92-23.48-9.14,1.47-18.69,3.75-29.19,6.97l-19.85,6.09,14.75-17.34c1.69-1.98,3.37-3.96,5.04-5.96,12.29-14.76,25.78-28.64,38.83-42.05,13.06-13.43,26.56-27.32,38.68-41.93h0s1.75-2.1,1.75-2.1c11.3-13.58,21.97-26.41,22.08-43.75.1-15.28-7.64-29.42-19.72-36.03-13.67-7.48-28.95-4.33-46.73,9.64-34.25,26.92-66.02,56.86-95.24,85.22-2.83,2.74-7.04,3.06-10.25.77-3.21-2.28-4.28-6.37-2.62-9.93,4.4-9.42,9.08-18.87,13.61-28,8.32-16.79,16.92-34.15,23.98-51.78l1.02-2.54c6.6-16.39,12.83-31.86,7.62-48.4-4.59-14.57-16.28-25.67-29.81-28.27-15.3-2.94-28.89,4.74-41.54,23.49-30.04,44.53-56.05,93.95-81.19,141.74-6.46,12.27-13.14,24.97-19.76,37.34l-27.15,50.72,15.98-55.27c5.11-17.69,10.28-38.69,9.82-60.32-.27-12.79-3.2-36.37-19.73-50.62-7.76-6.69-21.67-10.37-32.35-8.58-6.69,1.12-11.51,4.16-14.33,9.01-3.68,6.33-4.94,17.28-6.05,26.94-.54,4.69-1.05,9.12-1.81,13.04l-44.87,231.37c-9.04,46.64-18.4,94.87-15.18,142.83,3.55,52.95,22.99,97.71,54.73,126.03,44.86,40.01,110,45.83,167.8,46.24,7.28.05,14.73.05,21.95.04,2.25,0,4.5,0,6.75,0Z"/>
    </g>
    <path class="cls-3" d="M363.55,708.73c-.81,0-1.62-.16-2.41-.5-3.07-1.33-4.49-4.9-3.15-7.98,5.43-12.53,11.27-25.94,18.37-42.2,6.17-14.13,12.67-28.42,18.95-42.24,10.74-23.61,21.84-48.03,31.62-72.3,7.18-17.81,15.77-35.15,24.08-51.92,8.32-16.78,16.92-34.14,23.98-51.76l1.02-2.54c6.6-16.39,12.83-31.86,7.62-48.4-4.59-14.57-16.29-25.67-29.81-28.27-15.3-2.94-28.89,4.74-41.54,23.49-30.04,44.52-56.04,93.94-81.18,141.73-10.17,19.33-20.69,39.33-31.28,58.61-18.15,33.04-26.33,48.16-37.65,69.08-6.18,11.43-13.21,24.41-23.24,42.85-1.6,2.94-5.28,4.03-8.23,2.43-2.94-1.6-4.03-5.28-2.43-8.23,10.02-18.42,17.04-31.4,23.22-42.83,11.33-20.94,19.52-36.06,37.69-69.14,10.54-19.19,21.03-39.13,31.18-58.42,25.3-48.08,51.45-97.79,81.86-142.86,15.44-22.89,33.57-32.52,53.88-28.61,17.84,3.43,33.18,17.77,39.09,36.54,6.51,20.68-.84,38.93-7.94,56.57l-1.01,2.52c-7.24,18.07-15.95,35.64-24.37,52.64-8.21,16.56-16.7,33.69-23.7,51.07-9.88,24.52-21.04,49.06-31.83,72.79-6.27,13.78-12.74,28.03-18.88,42.07-7.1,16.24-12.93,29.64-18.36,42.16-.99,2.29-3.22,3.66-5.57,3.66Z"/>
    <path class="cls-3" d="M401.56,737.95c-1.42,0-2.85-.5-4-1.51-2.52-2.21-2.77-6.04-.56-8.56,9.03-10.29,18.69-21.27,30.41-34.54,10.2-11.56,20.76-23.17,30.98-34.4,17.45-19.19,35.49-39.03,52.24-59.15,12.29-14.76,25.78-28.64,38.83-42.05,13.06-13.43,26.56-27.32,38.68-41.93l1.75-2.11c11.3-13.58,21.96-26.4,22.07-43.74.1-15.28-7.64-29.42-19.72-36.03-13.67-7.48-28.95-4.33-46.73,9.64-41.08,32.28-48.05,39.17-66.69,57.6-8.49,8.39-19.05,18.83-36.1,34.95-2.43,2.3-6.27,2.19-8.57-.24-2.3-2.43-2.19-6.27.24-8.57,16.95-16.03,27.46-26.42,35.9-34.77,18.99-18.77,26.09-25.8,67.72-58.51,21.71-17.06,41.91-20.67,60.05-10.74,15.93,8.72,26.15,27.08,26.02,46.75-.14,21.68-12.71,36.8-24.88,51.42l-1.74,2.09c-12.42,14.99-26.1,29.05-39.32,42.65-12.89,13.25-26.21,26.96-38.2,41.36-16.92,20.32-35.05,40.26-52.58,59.54-10.18,11.2-20.71,22.78-30.86,34.27-11.71,13.27-21.37,24.24-30.38,34.52-1.2,1.37-2.88,2.07-4.56,2.07Z"/>
  </g>
  <g>
    <g>
      <path class="cls-1" d="M712.2,519.67c-12.36-14.91-25.09-29.21-25.22-49.69-.11-16.76,8.35-33.44,22.87-41.39,19.02-10.42,37.73-2.12,53.39,10.19,33.31,26.18,64.79,55.63,95.72,85.63,1.56,1.51,4.07-.27,3.15-2.24-12.49-26.74-26.72-52.62-37.73-80.09-7.2-17.98-14.94-35.49-8.8-55.02,5.03-15.98,18.18-29.28,34.45-32.4,21.3-4.09,36.57,9.54,47.71,26.05,38.01,56.33,68.95,119.22,101.27,179.61-5.9-20.41-10.51-40.96-10.05-62.13.44-20.34,6.42-41.8,21.84-55.08,13.65-11.76,44.95-16.83,55.89,1.98,6.2,10.68,6.22,29.75,8.57,41.87,2.99,15.42,5.98,30.85,8.97,46.27,11.97,61.7,23.93,123.4,35.9,185.1,9.24,47.65,18.53,95.96,15.28,144.39-3.25,48.43-20.52,97.83-56.74,130.15-45.37,40.47-111,47.35-171.8,47.78-60.8.43-124.29-3.11-179.47,22.43-17.08,7.9-36.07,18.7-53.44,11.46-17.61-7.33-23.44-31.02-17-48.98,6.43-17.96,21.63-31.18,36.8-42.75,48.64-37.12,103.33-66.22,149.22-106.7,17.3-15.26,33.98-33.42,38.36-56.07,5.17-26.73-7.9-53.55-23.26-76.03-11.9-17.42-25.7-33.97-43.28-45.62-17.59-11.65-39.43-18.01-60.1-13.79-14.24,2.91-27,10.52-40.53,15.81-13.54,5.29-29.33,8.1-42.24,1.45-12.51-6.44-19.62-21.03-19.24-35.09.38-14.06,7.41-27.37,17.18-37.49,23.96-24.82,62.19-30.73,96.25-25.25,10.19,1.64,20.17,4.14,30.01,7.16-2.13-2.51-4.27-5.01-6.38-7.54-24.44-29.35-53.13-54.59-77.51-84Z"/>
      <path class="cls-3" d="M686.24,1083.02c-4.88,0-9.76-.84-14.62-2.86-9.9-4.12-17.35-12.75-20.97-24.29-3.26-10.39-3.05-22.18.59-32.34,6.89-19.23,22.73-33.25,38.83-45.53,20.17-15.39,41.63-29.59,62.38-43.32,29.4-19.45,59.8-39.56,86.5-63.11,14.72-12.99,32.17-30.72,36.41-52.68,3.93-20.35-3.36-43.72-22.32-71.45-13.98-20.46-27.21-34.43-41.63-43.99-17.78-11.78-38.02-16.48-55.54-12.9-8.82,1.8-17.11,5.59-25.89,9.59-4.42,2.02-8.99,4.1-13.65,5.92-18.43,7.2-34.76,7.61-47.23,1.19-13.94-7.18-22.99-23.51-22.52-40.64.4-14.59,7.1-29.34,18.88-41.54,22.69-23.5,60.66-33.61,101.57-27.03,3.88.62,7.81,1.38,11.85,2.28-10.3-11.79-21.33-23.12-32.04-34.15-13.22-13.6-26.89-27.66-39.32-42.65l-1.74-2.09c-12.16-14.62-24.74-29.74-24.88-51.43-.12-19.68,10.09-38.03,26.02-46.75,18.14-9.93,38.34-6.32,60.05,10.74,28.3,22.24,54.86,46.45,79.68,70.14-1.19-2.4-2.37-4.79-3.55-7.16-8.42-17-17.13-34.57-24.37-52.65l-1.02-2.53c-7.1-17.64-14.44-35.89-7.94-56.57,5.91-18.77,21.25-33.11,39.09-36.54,20.3-3.9,38.44,5.73,53.88,28.61,30.12,44.64,56.07,93.83,81.13,141.47-.77-6.76-1.16-13.7-1.01-20.73.55-25.57,9.05-46.71,23.94-59.55,10.39-8.95,28.17-13.72,42.28-11.35,10.27,1.73,18.15,6.87,22.81,14.88,4.95,8.52,6.36,20.8,7.61,31.64.51,4.45,1,8.66,1.67,12.12l44.87,231.37c9.19,47.4,18.7,96.42,15.38,145.95-3.76,56.14-24.63,103.83-58.76,134.27-47.87,42.7-115.73,48.89-175.79,49.32-7.32.05-14.81.05-22.05.04-52.92-.04-107.58-.08-154.91,21.83-1.74.81-3.5,1.64-5.28,2.48-11.99,5.69-25.15,11.94-38.42,11.94ZM767.72,677.26c16.8,0,34.54,5.57,50.41,16.08,15.77,10.45,30.05,25.47,44.94,47.26,20.87,30.54,28.79,56.91,24.21,80.6-4.94,25.56-24.13,45.21-40.3,59.47-27.33,24.11-58.09,44.46-87.83,64.13-20.59,13.62-41.87,27.7-61.72,42.84-14.61,11.15-28.94,23.71-34.77,39.98-5.26,14.68-.95,35.26,13.63,41.33,13.09,5.45,28.39-1.81,43.18-8.84,1.81-.86,3.61-1.71,5.38-2.53,49.77-23.03,105.83-22.99,160.02-22.95,7.22,0,14.67.01,21.95-.04,57.8-.41,122.94-6.23,167.8-46.24,31.74-28.32,51.18-73.07,54.73-126.03,3.21-47.96-6.14-96.19-15.18-142.83l-44.87-231.37c-.76-3.92-1.27-8.35-1.81-13.04-1.11-9.66-2.38-20.61-6.05-26.94-2.82-4.85-7.64-7.89-14.33-9.01-10.69-1.8-24.59,1.89-32.35,8.58-16.53,14.24-19.46,37.83-19.73,50.62-.46,21.63,4.7,42.63,9.81,60.32l15.98,55.27-27.15-50.72c-6.62-12.37-13.3-25.06-19.75-37.33-25.15-47.8-51.15-97.22-81.2-141.75-12.65-18.74-26.23-26.43-41.54-23.49-13.52,2.6-25.22,13.69-29.81,28.27-5.2,16.54,1.02,32.01,7.62,48.4l1.03,2.55c7.06,17.63,15.66,34.99,23.98,51.77,4.53,9.13,9.21,18.58,13.61,28,1.67,3.56.59,7.65-2.62,9.93-3.21,2.28-7.42,1.97-10.25-.77-29.23-28.36-61-58.31-95.24-85.22-17.78-13.97-33.07-17.12-46.73-9.64-12.07,6.61-19.81,20.76-19.72,36.03.11,17.34,10.78,30.17,22.07,43.74l1.75,2.11h0c12.12,14.62,25.62,28.5,38.68,41.93,13.05,13.42,26.54,27.29,38.83,42.05,1.65,1.99,3.33,3.95,5.01,5.92l14.78,17.38-19.85-6.09c-10.51-3.22-20.06-5.5-29.19-6.97-36.99-5.95-70.99,2.83-90.92,23.48-9.67,10.01-15.16,21.89-15.48,33.44-.34,12.57,6.07,24.44,15.95,29.53,11.72,6.04,26.73,2.4,37.26-1.71,4.35-1.7,8.76-3.71,13.03-5.66,9.01-4.11,18.32-8.36,28.5-10.44,4.63-.95,9.41-1.41,14.26-1.41Z"/>
    </g>
    <path class="cls-3" d="M941.45,708.73c-2.34,0-4.58-1.37-5.57-3.66-5.46-12.59-11.29-25.99-18.36-42.16-6.14-14.04-12.61-28.29-18.88-42.07-10.79-23.73-21.95-48.27-31.83-72.79-7-17.38-15.49-34.51-23.7-51.07-8.42-16.99-17.13-34.57-24.37-52.64l-1.01-2.52c-7.1-17.64-14.45-35.89-7.94-56.57,5.91-18.77,21.25-33.11,39.09-36.54,20.3-3.9,38.44,5.72,53.88,28.61,30.41,45.07,56.57,94.79,81.87,142.87,10.15,19.29,20.64,39.23,31.18,58.41,18.18,33.1,26.37,48.24,37.71,69.19,6.18,11.41,13.2,24.38,23.2,42.78,1.6,2.94.51,6.63-2.43,8.23-2.95,1.6-6.63.51-8.23-2.43-10.01-18.41-17.03-31.39-23.21-42.8-11.33-20.93-19.51-36.05-37.67-69.12-10.59-19.28-21.11-39.27-31.28-58.61-25.14-47.79-51.14-97.21-81.19-141.73-12.65-18.74-26.24-26.43-41.54-23.49-13.52,2.6-25.22,13.69-29.81,28.27-5.21,16.54,1.02,32.02,7.62,48.4l1.02,2.54c7.06,17.63,15.66,34.98,23.98,51.76,8.31,16.77,16.91,34.11,24.08,51.92,9.78,24.28,20.89,48.69,31.62,72.31,6.28,13.82,12.78,28.11,18.95,42.23,7.07,16.19,12.91,29.59,18.37,42.2,1.33,3.07-.08,6.65-3.15,7.98-.79.34-1.6.5-2.41.5Z"/>
    <path class="cls-3" d="M903.44,737.95c-1.69,0-3.36-.7-4.56-2.07-8.94-10.2-18.6-21.16-30.38-34.52-10.14-11.49-20.67-23.07-30.85-34.26-17.54-19.29-35.68-39.23-52.59-59.55-11.99-14.4-25.32-28.11-38.2-41.36-13.22-13.6-26.89-27.66-39.32-42.64l-1.74-2.09c-12.16-14.62-24.74-29.74-24.88-51.42-.12-19.68,10.09-38.03,26.02-46.75,18.14-9.93,38.34-6.32,60.05,10.74,41.62,32.71,48.73,39.73,67.72,58.51,8.44,8.35,18.95,18.74,35.91,34.77,2.43,2.3,2.54,6.14.24,8.57-2.3,2.43-6.14,2.54-8.57.24-17.05-16.12-27.61-26.56-36.1-34.96-18.63-18.42-25.6-25.31-66.68-57.59-17.78-13.97-33.07-17.12-46.73-9.64-12.07,6.61-19.81,20.76-19.72,36.03.11,17.34,10.78,30.17,22.07,43.74l1.75,2.11c12.12,14.62,25.62,28.5,38.68,41.93,13.05,13.42,26.54,27.3,38.83,42.06,16.75,20.12,34.79,39.96,52.25,59.15,10.21,11.23,20.77,22.84,30.97,34.4,11.79,13.36,21.46,24.34,30.41,34.54,2.21,2.52,1.96,6.35-.56,8.56-1.15,1.01-2.58,1.51-4,1.51Z"/>
  </g>
  <path class="cls-4" d="M249.01,482.63c-5.18,19.76-2.58,40.52.7,40.85,2.47.25,5.43-11.15,7.64-19.66,5.17-19.88,7.73-44.94,3.98-45.86-2.9-.71-9.28,13.08-12.32,24.67Z"/>
  <path class="cls-4" d="M543.07,464.77c-17.27,10.92-29.51,27.89-27.34,30.36,1.64,1.87,11.57-4.45,18.99-9.17,17.33-11.02,36.3-27.61,34.18-30.83-1.64-2.49-15.71,3.24-25.83,9.64Z"/>
  <path class="cls-4" d="M546.27,619.89c12.26-9.19,29.91-3.52,35.42-1.75,16.94,5.45,29.41,17.36,28.24,19.39-1.2,2.09-15.01-9.38-37.63-10.16-17.66-.61-30.71,5.64-32.49,1.93-1.14-2.37,3.2-6.97,6.46-9.41Z"/>
  <path class="cls-4" d="M412.83,407.38c-9.9,10.18-17.19,23.47-23.92,36.21-5.12,9.69-10.24,19.38-15.37,29.06-4.02,7.59-11.86,17.3-13.6,25.74-.9,4.36-1.04,4.11,2.97,1.62,5.56-3.45,9.96-10.93,13.66-16.16,10.28-14.56,19.72-29.68,28.73-45.05,4.09-6.98,8.06-14.03,11.97-21.12,2.67-4.85,5.9-9.83,8.58-14.91,1.33-2.52-1.66-5.12-3.98-3.45-3.35,2.41-6.43,5.38-9.05,8.07Z"/>
  <path class="cls-4" d="M584.85,991.69c20.6,9.71,35.15,28.88,31.52,30.53-2.35,1.07-12.66-5.1-18.66-8.69-16.2-9.69-32.73-23.84-30.3-26.54,1.66-1.84,11.85,2.06,17.44,4.7Z"/>
  <path class="cls-4" d="M551.85,971.24c-1.88.83-3.24,6.25,0,8.81,2.76,2.18,7.1.88,7.83-.98,1.11-2.82-5.27-8.96-7.83-7.83Z"/>
  <path class="cls-4" d="M620.39,652.03c-1.88.83-3.24,6.25,0,8.81,2.76,2.18,7.1.88,7.83-.98,1.11-2.82-5.27-8.96-7.83-7.83Z"/>
  <path class="cls-4" d="M1052.33,487.53c5.18,19.76,2.58,40.52-.7,40.85-2.47.25-5.43-11.15-7.64-19.66-5.17-19.88-7.73-44.94-3.98-45.86,2.9-.71,9.28,13.08,12.32,24.67Z"/>
  <path class="cls-4" d="M758.27,469.67c17.27,10.92,29.51,27.89,27.34,30.36-1.64,1.87-11.57-4.45-18.99-9.17-17.33-11.02-36.3-27.61-34.18-30.83,1.64-2.49,15.71,3.24,25.83,9.64Z"/>
  <path class="cls-4" d="M755.07,624.78c-12.26-9.19-29.91-3.52-35.42-1.75-16.94,5.45-29.41,17.36-28.24,19.39,1.2,2.09,15.01-9.38,37.63-10.16,17.66-.61,30.71,5.64,32.49,1.93,1.14-2.37-3.2-6.97-6.46-9.41Z"/>
  <path class="cls-4" d="M888.5,412.28c9.9,10.18,17.19,23.47,23.92,36.21,5.12,9.69,10.24,19.38,15.37,29.06,4.02,7.59,11.86,17.3,13.6,25.74.9,4.36,1.04,4.11-2.97,1.62-5.56-3.45-9.96-10.93-13.66-16.16-10.28-14.56-19.72-29.68-28.73-45.05-4.09-6.98-8.06-14.03-11.97-21.12-2.67-4.85-5.9-9.83-8.58-14.91-1.33-2.52,1.66-5.12,3.98-3.45,3.35,2.41,6.43,5.38,9.05,8.07Z"/>
  <path class="cls-4" d="M716.49,996.58c-20.6,9.71-35.15,28.88-31.52,30.53,2.35,1.07,12.66-5.1,18.66-8.69,16.2-9.69,32.73-23.84,30.3-26.54-1.66-1.84-11.85,2.06-17.44,4.7Z"/>
  <path class="cls-4" d="M749.49,976.13c1.88.83,3.24,6.25,0,8.81-2.76,2.18-7.1.88-7.83-.98-1.11-2.82,5.27-8.96,7.83-7.83Z"/>
  <path class="cls-4" d="M680.94,656.93c1.88.83,3.24,6.25,0,8.81-2.76,2.18-7.1.88-7.83-.98-1.11-2.82,5.27-8.96,7.83-7.83Z"/>
  <path class="cls-4" d="M652.55,929.21c-4.13,0-8.26-1.57-11.41-4.72l-71.57-71.57c-9.52-9.52-14.76-22.17-14.76-35.63s5.24-26.11,14.76-35.63c9.52-9.52,22.17-14.76,35.63-14.76s26.11,5.24,35.63,14.76l11.73,11.73,11.73-11.73c9.52-9.52,22.17-14.76,35.63-14.76s26.11,5.24,35.63,14.76,14.76,22.17,14.76,35.63-5.24,26.11-14.76,35.63l-71.59,71.57c-3.14,3.14-7.27,4.72-11.4,4.72ZM605.2,781.59c-9.53,0-18.5,3.71-25.24,10.45-6.74,6.74-10.46,15.71-10.46,25.24s3.71,18.5,10.46,25.24l71.57,71.57c.56.56,1.47.56,2.03,0l71.59-71.57c6.74-6.74,10.45-15.71,10.45-25.24s-3.71-18.5-10.46-25.24c-13.92-13.92-36.56-13.92-50.48,0l-22.12,22.12-22.12-22.12c-6.74-6.74-15.71-10.46-25.24-10.46Z"/>
  <path class="cls-5" d="M63.12,136.61c1.93,0,1.93-3,0-3s-1.93,3,0,3h0Z"/>
  <path class="cls-5" d="M47.62,242.01c1.93,0,1.93-3,0-3s-1.93,3,0,3h0Z"/>
</svg>